<svg width="24" height="20" viewBox="0 0 24 20" fill="none" xmlns="http://www.w3.org/2000/svg">
<path d="M13.7742 10.278L13.635 11.2112L11.9987 10.2483L10.3624 11.2112L10.2231 10.278L11.9987 9.21704L13.7742 10.278Z" fill="#459C6E"/>
<path d="M13.6284 15.3915L11.9991 15.9413L10.3699 15.3915L10.8495 14.4951L11.9991 14.9643L13.1488 14.4951L13.6284 15.3915Z" fill="#58C88D"/>
<path d="M11.9991 9.2154L13.7747 10.2782L17.876 7.33854L17.049 6.42456C15.9929 7.37526 14.5629 7.93554 13.1382 7.97406L11.9991 7.27194L10.8601 7.97406C9.43539 7.93554 8.00541 7.37526 6.94923 6.42456L6.12231 7.33854L10.2236 10.2782L11.9991 9.2154Z" fill="#459C6E"/>
<path d="M17.0483 6.42482C15.9904 7.37732 14.5621 7.93406 13.1374 7.97432L11.9984 7.274L10.8593 7.97432C9.43465 7.93406 8.00647 7.37732 6.94849 6.42482C7.47751 5.84005 8.02585 5.23429 8.55481 4.64951L10.0923 4.16626L11.9984 5.51091L13.9044 4.16626L15.442 4.64951C15.9709 5.23429 16.5193 5.84005 17.0483 6.42482Z" fill="#58C88D"/>
<path d="M13.6356 11.2125L13.149 14.4952L11.9993 14.9645L10.8497 14.4952L10.363 11.2125L11.9993 10.2495L13.6356 11.2125Z" fill="#459C6E"/>
<path d="M14.8927 17.7822L13.6919 19.1058L11.9992 18.5859L10.3065 19.1058L9.10571 17.7822L10.37 15.3906L11.9992 15.9403L13.6284 15.3906L14.8927 17.7822Z" fill="#295C41"/>
<path d="M13.6923 19.1049L13.3784 19.4569H10.6207L10.3069 19.1049L11.9995 18.585L13.6923 19.1049Z" fill="#58C88D"/>
<path d="M9.43522 10.7722L6.95788 9.28394L6.45532 10.6706L8.04226 12.6438L8.8339 16.3765L9.92008 14.3736L9.43522 10.7722Z" fill="#459C6E"/>
<path d="M6.45614 10.6714L6.03296 11.8357L8.83472 16.3773L8.04302 12.6446L6.45614 10.6714Z" fill="#295C41"/>
<path d="M14.565 10.7722L17.0423 9.28394L17.5448 10.6706L15.958 12.6438L15.1663 16.3765L14.0801 14.3736L14.565 10.7722Z" fill="#459C6E"/>
<path d="M17.5451 10.6714L17.9683 11.8357L15.1665 16.3773L15.9582 12.6446L17.5451 10.6714Z" fill="#295C41"/>
<path d="M1.84943 4.90884C1.89304 3.47841 4.56351 0.540527 4.56351 0.540527C3.40357 1.77311 2.08665 2.73781 1.11684 4.12971C0.848222 4.5149 0.679028 4.99987 0.764498 5.45332C0.92672 6.30773 1.65233 6.89076 2.85936 7.00284C3.48729 7.06062 5.35192 6.9888 5.35192 6.9888L6.34093 5.89628C5.22983 5.97334 1.81281 6.10638 1.84943 4.90884Z" fill="#295C41"/>
<path d="M3.9221 4.35732C3.47731 4.13671 3.16158 3.67275 3.40056 2.90414C3.67964 2.00247 4.01629 1.34415 4.56397 0.540527C4.56397 0.540527 1.8935 3.47841 1.8499 4.90884C1.81327 6.10638 5.2303 5.97334 6.34316 5.89803L7.4909 4.63044C5.96114 4.63044 4.97911 4.88433 3.9221 4.35732Z" fill="#58C88D"/>
<path d="M22.1507 4.90884C22.1071 3.47841 19.4366 0.540527 19.4366 0.540527C20.5965 1.77311 21.9135 2.73781 22.8833 4.12971C23.1519 4.5149 23.3211 4.99987 23.2356 5.45332C23.0734 6.30773 22.3478 6.89076 21.1407 7.00284C20.5128 7.06062 18.6482 6.9888 18.6482 6.9888L17.6592 5.89628C18.7703 5.97334 22.1873 6.10638 22.1507 4.90884Z" fill="#295C41"/>
<path d="M20.0781 4.35732C20.5229 4.13671 20.8385 3.67275 20.5996 2.90414C20.3188 2.00247 19.9822 1.34415 19.4344 0.540527C19.4344 0.540527 22.1049 3.47841 22.1485 4.90884C22.1851 6.10638 18.7681 5.97334 17.6553 5.89803L16.5076 4.63044C18.039 4.63044 19.021 4.88433 20.0781 4.35732Z" fill="#58C88D"/>
</svg>
