<svg width="14" height="14" viewBox="0 0 14 14" fill="none" xmlns="http://www.w3.org/2000/svg">
<path fill-rule="evenodd" clip-rule="evenodd" d="M8.20488 4.98708C8.63314 4.77353 9.17807 4.45919 9.72365 4.0285C9.83868 4.26739 9.85128 4.47585 9.79202 4.64417C9.75002 4.7628 9.67087 4.86598 9.5668 4.94807C9.4541 5.03678 9.31335 5.10137 9.15777 5.13627C8.86256 5.20277 8.51787 5.16395 8.20488 4.98708ZM8.27913 7.17509L8.84604 7.50255C7.68852 8.15131 7.37384 9.35597 7.00004 10.5293C6.62629 9.35597 6.31157 8.15131 5.15409 7.50255L5.721 7.17509C5.77584 7.15437 5.82272 7.11682 5.85491 7.06782C5.8871 7.01882 5.90295 6.96089 5.9002 6.90233C5.84826 5.80347 6.14497 5.31753 6.54518 5.01242C6.68873 4.90313 6.84543 4.84825 7.00004 4.84825C7.15465 4.84825 7.31135 4.90313 7.45495 5.01242C7.85516 5.31753 8.15187 5.80347 8.09993 6.90233C8.09718 6.96089 8.11303 7.01882 8.14522 7.06782C8.17741 7.11682 8.22429 7.15437 8.27913 7.17509ZM7.00004 0C7.65533 0.0175933 8.31226 0.144807 8.88239 0.39228C9.27719 0.563873 9.64558 0.790533 9.97915 1.06157C10.1298 1.18393 10.2538 1.30214 10.3905 1.43822C10.759 1.45096 11.2976 1.04155 11.5476 0.658467C11.1173 2.0692 9.15366 3.73515 7.79421 4.37262C7.79365 4.37239 7.79328 4.37206 7.79286 4.37178C7.54889 4.18549 7.27449 4.09234 7.00004 4.09234C6.72559 4.09234 6.45124 4.18549 6.20727 4.37178C6.20685 4.37201 6.20647 4.37243 6.20591 4.37262C4.84642 3.73515 2.88283 2.0692 2.45251 0.658467C2.70251 1.04155 3.24109 1.45096 3.60961 1.43822C3.7463 1.30219 3.87034 1.18393 4.02093 1.06157C4.35451 0.790533 4.72289 0.563873 5.11769 0.39228C5.68787 0.144807 6.34479 0.0175933 7.00004 0ZM5.7952 4.98708C5.36699 4.77353 4.82201 4.45919 4.27648 4.0285C4.16145 4.26739 4.14885 4.47585 4.20807 4.64417C4.25011 4.7628 4.32926 4.86598 4.43328 4.94807C4.54603 5.03678 4.68677 5.10137 4.84236 5.13627C5.13757 5.20277 5.48221 5.16395 5.7952 4.98708Z" fill="#949494"/>
<path fill-rule="evenodd" clip-rule="evenodd" d="M10.3212 3.5007C10.6215 3.1976 10.8862 2.86211 11.099 2.56274L11.2071 2.76616C11.555 3.46229 11.7358 4.15562 11.7358 4.93588L11.735 6.17404L11.7416 6.8159C11.7668 8.39164 12.1077 9.98592 12.8801 11.4449L11.2641 10.1419L10.1207 11.9973L8.91955 10.8665L7.00006 13.9815L5.08056 10.8666L3.87941 11.9973L2.73603 10.1419L1.12006 11.445C1.89239 9.98596 2.23334 8.39169 2.25858 6.81594L2.26512 6.17409L2.26437 4.93593C2.26437 4.15562 2.44511 3.46229 2.79315 2.76621L2.90118 2.56279C3.11398 2.86216 3.37858 3.1976 3.67898 3.50074L3.58518 3.69558C3.40294 4.074 3.3426 4.49712 3.48456 4.89953C3.57608 5.15872 3.7431 5.38099 3.95842 5.55067C4.16748 5.71545 4.41491 5.82652 4.67396 5.88485C4.8427 5.92284 5.01462 5.93847 5.18542 5.93315C5.14557 6.15906 5.12816 6.39338 5.12704 6.63212L3.60272 7.51254L4.779 8.17189C4.87302 8.2246 4.96252 8.28499 5.04659 8.35244C6.01637 9.22315 6.59942 11.799 7.0001 13.0572C7.40083 11.799 7.98384 9.22315 8.95366 8.35244C9.03772 8.28498 9.12723 8.22459 9.22125 8.17189L10.3975 7.51254L8.87316 6.63212C8.87204 6.39338 8.85464 6.15906 8.81478 5.93315C8.98558 5.93847 9.1575 5.92284 9.32625 5.88485C9.5853 5.82652 9.83277 5.71545 10.0418 5.55067C10.2571 5.38099 10.4241 5.15872 10.5156 4.89953C10.6576 4.49712 10.5972 4.07404 10.415 3.69558L10.3212 3.50074L10.3212 3.5007Z" fill="#949494"/>
</svg>
