<svg width="16" height="20" viewBox="0 0 16 20" fill="none" xmlns="http://www.w3.org/2000/svg">
<path d="M10.2653 0.638539C10.2451 0.671189 10.2266 0.705017 10.2103 0.73985C10.0639 1.01237 9.87886 1.26164 9.66106 1.47972C9.46575 1.66716 9.25294 1.83496 9.02564 1.98073L8.95805 2.02027L8.91795 2.15276C8.896 2.22624 8.85211 2.36819 8.82073 2.46618C8.75484 2.67383 8.7521 2.69221 8.79111 2.67996C8.91032 2.64099 9.18101 2.56861 9.25848 2.55025C9.35575 2.53076 9.59127 2.49791 9.75668 2.48343L9.85 2.47397L9.88243 2.36819C9.94447 2.16166 10.0609 1.72133 10.1114 1.50587C10.1916 1.16239 10.2834 0.638539 10.2653 0.638539ZM12.0674 5.81583C12.0234 5.68894 11.9805 5.56644 11.969 5.54584C11.9158 5.484 11.8563 5.42803 11.7916 5.37883C11.7037 5.30814 11.5378 5.17063 11.4214 5.0732C11.1237 4.81991 10.9957 4.74811 10.8299 4.73585C10.7725 4.73067 10.7148 4.73986 10.6619 4.76257C10.6065 4.78383 10.5534 4.81089 10.5036 4.84329C10.436 4.89061 10.3701 4.95462 10.3701 4.97857C10.3887 5.02924 10.41 5.07887 10.4339 5.12722C10.5149 5.31534 10.5823 5.50921 10.6354 5.70728C10.6744 5.84644 10.7365 5.89489 11.0358 6.02128C11.3352 6.14767 11.3813 6.16378 11.4835 6.18383C11.616 6.20539 11.751 6.20667 11.8839 6.18772C11.9648 6.16517 12.0413 6.12883 12.1101 6.08028L12.1453 6.05133L12.0674 5.81583ZM12.0674 5.81583C12.0234 5.68894 11.9805 5.56644 11.969 5.54584C11.9158 5.484 11.8563 5.42803 11.7916 5.37883C11.7037 5.30814 11.5378 5.17063 11.4214 5.0732C11.1237 4.81991 10.9957 4.74811 10.8299 4.73585C10.7725 4.73067 10.7148 4.73986 10.6619 4.76257C10.6065 4.78383 10.5534 4.81089 10.5036 4.84329C10.436 4.89061 10.3701 4.95462 10.3701 4.97857C10.3887 5.02924 10.41 5.07887 10.4339 5.12722C10.5149 5.31534 10.5823 5.50921 10.6354 5.70728C10.6744 5.84644 10.7365 5.89489 11.0358 6.02128C11.3352 6.14767 11.3813 6.16378 11.4835 6.18383C11.616 6.20539 11.751 6.20667 11.8839 6.18772C11.9648 6.16517 12.0413 6.12883 12.1101 6.08028L12.1453 6.05133L12.0674 5.81583ZM12.0674 5.81583C12.0234 5.68894 11.9805 5.56644 11.969 5.54584C11.9158 5.484 11.8563 5.42803 11.7916 5.37883C11.7037 5.30814 11.5378 5.17063 11.4214 5.0732C11.1237 4.81991 10.9957 4.74811 10.8299 4.73585C10.7725 4.73067 10.7148 4.73986 10.6619 4.76257C10.6065 4.78383 10.5534 4.81089 10.5036 4.84329C10.436 4.89061 10.3701 4.95462 10.3701 4.97857C10.3887 5.02924 10.41 5.07887 10.4339 5.12722C10.5149 5.31534 10.5823 5.50921 10.6354 5.70728C10.6744 5.84644 10.7365 5.89489 11.0358 6.02128C11.3352 6.14767 11.3813 6.16378 11.4835 6.18383C11.616 6.20539 11.751 6.20667 11.8839 6.18772C11.9648 6.16517 12.0413 6.12883 12.1101 6.08028L12.1453 6.05133L12.0674 5.81583ZM12.0674 5.81583C12.0234 5.68894 11.9805 5.56644 11.969 5.54584C11.9158 5.484 11.8563 5.42803 11.7916 5.37883C11.7037 5.30814 11.5378 5.17063 11.4214 5.0732C11.1237 4.81991 10.9957 4.74811 10.8299 4.73585C10.7725 4.73067 10.7148 4.73986 10.6619 4.76257C10.6065 4.78383 10.5534 4.81089 10.5036 4.84329C10.436 4.89061 10.3701 4.95462 10.3701 4.97857C10.3887 5.02924 10.41 5.07887 10.4339 5.12722C10.5149 5.31534 10.5823 5.50921 10.6354 5.70728C10.6744 5.84644 10.7365 5.89489 11.0358 6.02128C11.3352 6.14767 11.3813 6.16378 11.4835 6.18383C11.616 6.20539 11.751 6.20667 11.8839 6.18772C11.9648 6.16517 12.0413 6.12883 12.1101 6.08028L12.1453 6.05133L12.0674 5.81583ZM12.0674 5.81583C12.0234 5.68894 11.9805 5.56644 11.969 5.54584C11.9158 5.484 11.8563 5.42803 11.7916 5.37883C11.7037 5.30814 11.5378 5.17063 11.4214 5.0732C11.1237 4.81991 10.9957 4.74811 10.8299 4.73585C10.7725 4.73067 10.7148 4.73986 10.6619 4.76257C10.6065 4.78383 10.5534 4.81089 10.5036 4.84329C10.436 4.89061 10.3701 4.95462 10.3701 4.97857C10.3887 5.02924 10.41 5.07887 10.4339 5.12722C10.5149 5.31534 10.5823 5.50921 10.6354 5.70728C10.6744 5.84644 10.7365 5.89489 11.0358 6.02128C11.3352 6.14767 11.3813 6.16378 11.4835 6.18383C11.616 6.20539 11.751 6.20667 11.8839 6.18772C11.9648 6.16517 12.0413 6.12883 12.1101 6.08028L12.1453 6.05133L12.0674 5.81583ZM12.0674 5.81583C12.0234 5.68894 11.9805 5.56644 11.969 5.54584C11.9158 5.484 11.8563 5.42803 11.7916 5.37883C11.7037 5.30814 11.5378 5.17063 11.4214 5.0732C11.1237 4.81991 10.9957 4.74811 10.8299 4.73585C10.7725 4.73067 10.7148 4.73986 10.6619 4.76257C10.6065 4.78383 10.5534 4.81089 10.5036 4.84329C10.436 4.89061 10.3701 4.95462 10.3701 4.97857C10.3887 5.02924 10.41 5.07887 10.4339 5.12722C10.5149 5.31534 10.5823 5.50921 10.6354 5.70728C10.6744 5.84644 10.7365 5.89489 11.0358 6.02128C11.3352 6.14767 11.3813 6.16378 11.4835 6.18383C11.616 6.20539 11.751 6.20667 11.8839 6.18772C11.9648 6.16517 12.0413 6.12883 12.1101 6.08028L12.1453 6.05133L12.0674 5.81583ZM12.0674 5.81583C12.0234 5.68894 11.9805 5.56644 11.969 5.54584C11.9158 5.484 11.8563 5.42803 11.7916 5.37883C11.7037 5.30814 11.5378 5.17063 11.4214 5.0732C11.1237 4.81991 10.9957 4.74811 10.8299 4.73585C10.7725 4.73067 10.7148 4.73986 10.6619 4.76257C10.6065 4.78383 10.5534 4.81089 10.5036 4.84329C10.436 4.89061 10.3701 4.95462 10.3701 4.97857C10.3887 5.02924 10.41 5.07887 10.4339 5.12722C10.5149 5.31534 10.5823 5.50921 10.6354 5.70728C10.6744 5.84644 10.7365 5.89489 11.0358 6.02128C11.3352 6.14767 11.3813 6.16378 11.4835 6.18383C11.616 6.20539 11.751 6.20667 11.8839 6.18772C11.9648 6.16517 12.0413 6.12883 12.1101 6.08028L12.1453 6.05133L12.0674 5.81583ZM12.0674 5.81583C12.0234 5.68894 11.9805 5.56644 11.969 5.54584C11.9158 5.484 11.8563 5.42803 11.7916 5.37883C11.7037 5.30814 11.5378 5.17063 11.4214 5.0732C11.1237 4.81991 10.9957 4.74811 10.8299 4.73585C10.7725 4.73067 10.7148 4.73986 10.6619 4.76257C10.6065 4.78383 10.5534 4.81089 10.5036 4.84329C10.436 4.89061 10.3701 4.95462 10.3701 4.97857C10.3887 5.02924 10.41 5.07887 10.4339 5.12722C10.5149 5.31534 10.5823 5.50921 10.6354 5.70728C10.6744 5.84644 10.7365 5.89489 11.0358 6.02128C11.3352 6.14767 11.3813 6.16378 11.4835 6.18383C11.616 6.20539 11.751 6.20667 11.8839 6.18772C11.9648 6.16517 12.0413 6.12883 12.1101 6.08028L12.1453 6.05133L12.0674 5.81583ZM12.0674 5.81583C12.0234 5.68894 11.9805 5.56644 11.969 5.54584C11.9158 5.484 11.8563 5.42803 11.7916 5.37883C11.7037 5.30814 11.5378 5.17063 11.4214 5.0732C11.1237 4.81991 10.9957 4.74811 10.8299 4.73585C10.7725 4.73067 10.7148 4.73986 10.6619 4.76257C10.6065 4.78383 10.5534 4.81089 10.5036 4.84329C10.436 4.89061 10.3701 4.95462 10.3701 4.97857C10.3887 5.02924 10.41 5.07887 10.4339 5.12722C10.5149 5.31534 10.5823 5.50921 10.6354 5.70728C10.6744 5.84644 10.7365 5.89489 11.0358 6.02128C11.3352 6.14767 11.3813 6.16378 11.4835 6.18383C11.616 6.20539 11.751 6.20667 11.8839 6.18772C11.9648 6.16517 12.0413 6.12883 12.1101 6.08028L12.1453 6.05133L12.0674 5.81583ZM12.0674 5.81583C12.0234 5.68894 11.9805 5.56644 11.969 5.54584C11.9158 5.484 11.8563 5.42803 11.7916 5.37883C11.7037 5.30814 11.5378 5.17063 11.4214 5.0732C11.1237 4.81991 10.9957 4.74811 10.8299 4.73585C10.7725 4.73067 10.7148 4.73986 10.6619 4.76257C10.6065 4.78383 10.5534 4.81089 10.5036 4.84329C10.436 4.89061 10.3701 4.95462 10.3701 4.97857C10.3887 5.02924 10.41 5.07887 10.4339 5.12722C10.5149 5.31534 10.5823 5.50921 10.6354 5.70728C10.6744 5.84644 10.7365 5.89489 11.0358 6.02128C11.3352 6.14767 11.3813 6.16378 11.4835 6.18383C11.616 6.20539 11.751 6.20667 11.8839 6.18772C11.9648 6.16517 12.0413 6.12883 12.1101 6.08028L12.1453 6.05133L12.0674 5.81583ZM12.0674 5.81583C12.0234 5.68894 11.9805 5.56644 11.969 5.54584C11.9158 5.484 11.8563 5.42803 11.7916 5.37883C11.7037 5.30814 11.5378 5.17063 11.4214 5.0732C11.1237 4.81991 10.9957 4.74811 10.8299 4.73585C10.7725 4.73067 10.7148 4.73986 10.6619 4.76257C10.6065 4.78383 10.5534 4.81089 10.5036 4.84329C10.436 4.89061 10.3701 4.95462 10.3701 4.97857C10.3887 5.02924 10.41 5.07887 10.4339 5.12722C10.5149 5.31534 10.5823 5.50921 10.6354 5.70728C10.6744 5.84644 10.7365 5.89489 11.0358 6.02128C11.3352 6.14767 11.3813 6.16378 11.4835 6.18383C11.616 6.20539 11.751 6.20667 11.8839 6.18772C11.9648 6.16517 12.0413 6.12883 12.1101 6.08028L12.1453 6.05133L12.0674 5.81583ZM12.0674 5.81583C12.0234 5.68894 11.9805 5.56644 11.969 5.54584C11.9158 5.484 11.8563 5.42803 11.7916 5.37883C11.7037 5.30814 11.5378 5.17063 11.4214 5.0732C11.1237 4.81991 10.9957 4.74811 10.8299 4.73585C10.7725 4.73067 10.7148 4.73986 10.6619 4.76257C10.6065 4.78383 10.5534 4.81089 10.5036 4.84329C10.436 4.89061 10.3701 4.95462 10.3701 4.97857C10.3887 5.02924 10.41 5.07887 10.4339 5.12722C10.5149 5.31534 10.5823 5.50921 10.6354 5.70728C10.6744 5.84644 10.7365 5.89489 11.0358 6.02128C11.3352 6.14767 11.3813 6.16378 11.4835 6.18383C11.616 6.20539 11.751 6.20667 11.8839 6.18772C11.9648 6.16517 12.0413 6.12883 12.1101 6.08028L12.1453 6.05133L12.0674 5.81583ZM12.0674 5.81583C12.0234 5.68894 11.9805 5.56644 11.969 5.54584C11.9158 5.484 11.8563 5.42803 11.7916 5.37883C11.7037 5.30814 11.5378 5.17063 11.4214 5.0732C11.1237 4.81991 10.9957 4.74811 10.8299 4.73585C10.7725 4.73067 10.7148 4.73986 10.6619 4.76257C10.6065 4.78383 10.5534 4.81089 10.5036 4.84329C10.436 4.89061 10.3701 4.95462 10.3701 4.97857C10.3887 5.02924 10.41 5.07887 10.4339 5.12722C10.5149 5.31534 10.5823 5.50921 10.6354 5.70728C10.6744 5.84644 10.7365 5.89489 11.0358 6.02128C11.3352 6.14767 11.3813 6.16378 11.4835 6.18383C11.616 6.20539 11.751 6.20667 11.8839 6.18772C11.9648 6.16517 12.0413 6.12883 12.1101 6.08028L12.1453 6.05133L12.0674 5.81583ZM12.0674 5.81583C12.0234 5.68894 11.9805 5.56644 11.969 5.54584C11.9158 5.484 11.8563 5.42803 11.7916 5.37883C11.7037 5.30814 11.5378 5.17063 11.4214 5.0732C11.1237 4.81991 10.9957 4.74811 10.8299 4.73585C10.7725 4.73067 10.7148 4.73986 10.6619 4.76257C10.6065 4.78383 10.5534 4.81089 10.5036 4.84329C10.436 4.89061 10.3701 4.95462 10.3701 4.97857C10.3887 5.02924 10.41 5.07887 10.4339 5.12722C10.5149 5.31534 10.5823 5.50921 10.6354 5.70728C10.6744 5.84644 10.7365 5.89489 11.0358 6.02128C11.3352 6.14767 11.3813 6.16378 11.4835 6.18383C11.616 6.20539 11.751 6.20667 11.8839 6.18772C11.9648 6.16517 12.0413 6.12883 12.1101 6.08028L12.1453 6.05133L12.0674 5.81583ZM12.0674 5.81583C12.0234 5.68894 11.9805 5.56644 11.969 5.54584C11.9158 5.484 11.8563 5.42803 11.7916 5.37883C11.7037 5.30814 11.5378 5.17063 11.4214 5.0732C11.1237 4.81991 10.9957 4.74811 10.8299 4.73585C10.7725 4.73067 10.7148 4.73986 10.6619 4.76257C10.6065 4.78383 10.5534 4.81089 10.5036 4.84329C10.436 4.89061 10.3701 4.95462 10.3701 4.97857C10.3887 5.02924 10.41 5.07887 10.4339 5.12722C10.5149 5.31534 10.5823 5.50921 10.6354 5.70728C10.6744 5.84644 10.7365 5.89489 11.0358 6.02128C11.3352 6.14767 11.3813 6.16378 11.4835 6.18383C11.616 6.20539 11.751 6.20667 11.8839 6.18772C11.9648 6.16517 12.0413 6.12883 12.1101 6.08028L12.1453 6.05133L12.0674 5.81583ZM12.0674 5.81583C12.0234 5.68894 11.9805 5.56644 11.969 5.54584C11.9158 5.484 11.8563 5.42803 11.7916 5.37883C11.7037 5.30814 11.5378 5.17063 11.4214 5.0732C11.1237 4.81991 10.9957 4.74811 10.8299 4.73585C10.7725 4.73067 10.7148 4.73986 10.6619 4.76257C10.6065 4.78383 10.5534 4.81089 10.5036 4.84329C10.436 4.89061 10.3701 4.95462 10.3701 4.97857C10.3887 5.02924 10.41 5.07887 10.4339 5.12722C10.5149 5.31534 10.5823 5.50921 10.6354 5.70728C10.6744 5.84644 10.7365 5.89489 11.0358 6.02128C11.3352 6.14767 11.3813 6.16378 11.4835 6.18383C11.616 6.20539 11.751 6.20667 11.8839 6.18772C11.9648 6.16517 12.0413 6.12883 12.1101 6.08028L12.1453 6.05133L12.0674 5.81583ZM12.0674 5.81583C12.0234 5.68894 11.9805 5.56644 11.969 5.54584C11.9158 5.484 11.8563 5.42803 11.7916 5.37883C11.7037 5.30814 11.5378 5.17063 11.4214 5.0732C11.1237 4.81991 10.9957 4.74811 10.8299 4.73585C10.7725 4.73067 10.7148 4.73986 10.6619 4.76257C10.6065 4.78383 10.5534 4.81089 10.5036 4.84329C10.436 4.89061 10.3701 4.95462 10.3701 4.97857C10.3887 5.02924 10.41 5.07887 10.4339 5.12722C10.5149 5.31534 10.5823 5.50921 10.6354 5.70728C10.6744 5.84644 10.7365 5.89489 11.0358 6.02128C11.3352 6.14767 11.3813 6.16378 11.4835 6.18383C11.616 6.20539 11.751 6.20667 11.8839 6.18772C11.9648 6.16517 12.0413 6.12883 12.1101 6.08028L12.1453 6.05133L12.0674 5.81583ZM12.0674 5.81583C12.0234 5.68894 11.9805 5.56644 11.969 5.54584C11.9158 5.484 11.8563 5.42803 11.7916 5.37883C11.7037 5.30814 11.5378 5.17063 11.4214 5.0732C11.1237 4.81991 10.9957 4.74811 10.8299 4.73585C10.7725 4.73067 10.7148 4.73986 10.6619 4.76257C10.6065 4.78383 10.5534 4.81089 10.5036 4.84329C10.436 4.89061 10.3701 4.95462 10.3701 4.97857C10.3887 5.02924 10.41 5.07887 10.4339 5.12722C10.5149 5.31534 10.5823 5.50921 10.6354 5.70728C10.6744 5.84644 10.7365 5.89489 11.0358 6.02128C11.3352 6.14767 11.3813 6.16378 11.4835 6.18383C11.616 6.20539 11.751 6.20667 11.8839 6.18772C11.9648 6.16517 12.0413 6.12883 12.1101 6.08028L12.1453 6.05133L12.0674 5.81583ZM12.0674 5.81583C12.0234 5.68894 11.9805 5.56644 11.969 5.54584C11.9158 5.484 11.8563 5.42803 11.7916 5.37883C11.7037 5.30814 11.5378 5.17063 11.4214 5.0732C11.1237 4.81991 10.9957 4.74811 10.8299 4.73585C10.7725 4.73067 10.7148 4.73986 10.6619 4.76257C10.6065 4.78383 10.5534 4.81089 10.5036 4.84329C10.436 4.89061 10.3701 4.95462 10.3701 4.97857C10.3887 5.02924 10.41 5.07887 10.4339 5.12722C10.5149 5.31534 10.5823 5.50921 10.6354 5.70728C10.6744 5.84644 10.7365 5.89489 11.0358 6.02128C11.3352 6.14767 11.3813 6.16378 11.4835 6.18383C11.616 6.20539 11.751 6.20667 11.8839 6.18772C11.9648 6.16517 12.0413 6.12883 12.1101 6.08028L12.1453 6.05133L12.0674 5.81583ZM12.0674 5.81583C12.0234 5.68894 11.9805 5.56644 11.969 5.54584C11.9158 5.484 11.8563 5.42803 11.7916 5.37883C11.7037 5.30814 11.5378 5.17063 11.4214 5.0732C11.1237 4.81991 10.9957 4.74811 10.8299 4.73585C10.7725 4.73067 10.7148 4.73986 10.6619 4.76257C10.6065 4.78383 10.5534 4.81089 10.5036 4.84329C10.436 4.89061 10.3701 4.95462 10.3701 4.97857C10.3887 5.02924 10.41 5.07887 10.4339 5.12722C10.5149 5.31534 10.5823 5.50921 10.6354 5.70728C10.6744 5.84644 10.7365 5.89489 11.0358 6.02128C11.3352 6.14767 11.3813 6.16378 11.4835 6.18383C11.616 6.20539 11.751 6.20667 11.8839 6.18772C11.9648 6.16517 12.0413 6.12883 12.1101 6.08028L12.1453 6.05133L12.0674 5.81583ZM12.0674 5.81583C12.0234 5.68894 11.9805 5.56644 11.969 5.54584C11.9158 5.484 11.8563 5.42803 11.7916 5.37883C11.7037 5.30814 11.5378 5.17063 11.4214 5.0732C11.1237 4.81991 10.9957 4.74811 10.8299 4.73585C10.7725 4.73067 10.7148 4.73986 10.6619 4.76257C10.6065 4.78383 10.5534 4.81089 10.5036 4.84329C10.436 4.89061 10.3701 4.95462 10.3701 4.97857C10.3887 5.02924 10.41 5.07887 10.4339 5.12722C10.5149 5.31534 10.5823 5.50921 10.6354 5.70728C10.6744 5.84644 10.7365 5.89489 11.0358 6.02128C11.3352 6.14767 11.3813 6.16378 11.4835 6.18383C11.616 6.20539 11.751 6.20667 11.8839 6.18772C11.9648 6.16517 12.0413 6.12883 12.1101 6.08028L12.1453 6.05133L12.0674 5.81583ZM12.0674 5.81583C12.0234 5.68894 11.9805 5.56644 11.969 5.54584C11.9158 5.484 11.8563 5.42803 11.7916 5.37883C11.7037 5.30814 11.5378 5.17063 11.4214 5.0732C11.1237 4.81991 10.9957 4.74811 10.8299 4.73585C10.7725 4.73067 10.7148 4.73986 10.6619 4.76257C10.6065 4.78383 10.5534 4.81089 10.5036 4.84329C10.436 4.89061 10.3701 4.95462 10.3701 4.97857C10.3887 5.02924 10.41 5.07887 10.4339 5.12722C10.5149 5.31534 10.5823 5.50921 10.6354 5.70728C10.6744 5.84644 10.7365 5.89489 11.0358 6.02128C11.3352 6.14767 11.3813 6.16378 11.4835 6.18383C11.616 6.20539 11.751 6.20667 11.8839 6.18772C11.9648 6.16517 12.0413 6.12883 12.1101 6.08028L12.1453 6.05133L12.0674 5.81583ZM12.0674 5.81583C12.0234 5.68894 11.9805 5.56644 11.969 5.54584C11.9158 5.484 11.8563 5.42803 11.7916 5.37883C11.7037 5.30814 11.5378 5.17063 11.4214 5.0732C11.1237 4.81991 10.9957 4.74811 10.8299 4.73585C10.7725 4.73067 10.7148 4.73986 10.6619 4.76257C10.6065 4.78383 10.5534 4.81089 10.5036 4.84329C10.436 4.89061 10.3701 4.95462 10.3701 4.97857C10.3887 5.02924 10.41 5.07887 10.4339 5.12722C10.5149 5.31534 10.5823 5.50921 10.6354 5.70728C10.6744 5.84644 10.7365 5.89489 11.0358 6.02128C11.3352 6.14767 11.3813 6.16378 11.4835 6.18383C11.616 6.20539 11.751 6.20667 11.8839 6.18772C11.9648 6.16517 12.0413 6.12883 12.1101 6.08028L12.1453 6.05133L12.0674 5.81583ZM12.0674 5.81583C12.0234 5.68894 11.9805 5.56644 11.969 5.54584C11.9158 5.484 11.8563 5.42803 11.7916 5.37883C11.7037 5.30814 11.5378 5.17063 11.4214 5.0732C11.1237 4.81991 10.9957 4.74811 10.8299 4.73585C10.7725 4.73067 10.7148 4.73986 10.6619 4.76257C10.6065 4.78383 10.5534 4.81089 10.5036 4.84329C10.436 4.89061 10.3701 4.95462 10.3701 4.97857C10.3887 5.02924 10.41 5.07887 10.4339 5.12722C10.5149 5.31534 10.5823 5.50921 10.6354 5.70728C10.6744 5.84644 10.7365 5.89489 11.0358 6.02128C11.3352 6.14767 11.3813 6.16378 11.4835 6.18383C11.616 6.20539 11.751 6.20667 11.8839 6.18772C11.9648 6.16517 12.0413 6.12883 12.1101 6.08028L12.1453 6.05133L12.0674 5.81583ZM12.0674 5.81583C12.0234 5.68894 11.9805 5.56644 11.969 5.54584C11.9158 5.484 11.8563 5.42803 11.7916 5.37883C11.7037 5.30814 11.5378 5.17063 11.4214 5.0732C11.1237 4.81991 10.9957 4.74811 10.8299 4.73585C10.7725 4.73067 10.7148 4.73986 10.6619 4.76257C10.6065 4.78383 10.5534 4.81089 10.5036 4.84329C10.436 4.89061 10.3701 4.95462 10.3701 4.97857C10.3887 5.02924 10.41 5.07887 10.4339 5.12722C10.5149 5.31534 10.5823 5.50921 10.6354 5.70728C10.6744 5.84644 10.7365 5.89489 11.0358 6.02128C11.3352 6.14767 11.3813 6.16378 11.4835 6.18383C11.616 6.20539 11.751 6.20667 11.8839 6.18772C11.9648 6.16517 12.0413 6.12883 12.1101 6.08028L12.1453 6.05133L12.0674 5.81583ZM12.0674 5.81583C12.0234 5.68894 11.9805 5.56644 11.969 5.54584C11.9158 5.484 11.8563 5.42803 11.7916 5.37883C11.7037 5.30814 11.5378 5.17063 11.4214 5.0732C11.1237 4.81991 10.9957 4.74811 10.8299 4.73585C10.7725 4.73067 10.7148 4.73986 10.6619 4.76257C10.6065 4.78383 10.5534 4.81089 10.5036 4.84329C10.436 4.89061 10.3701 4.95462 10.3701 4.97857C10.3887 5.02924 10.41 5.07887 10.4339 5.12722C10.5149 5.31534 10.5823 5.50921 10.6354 5.70728C10.6744 5.84644 10.7365 5.89489 11.0358 6.02128C11.3352 6.14767 11.3813 6.16378 11.4835 6.18383C11.616 6.20539 11.751 6.20667 11.8839 6.18772C11.9648 6.16517 12.0413 6.12883 12.1101 6.08028L12.1453 6.05133L12.0674 5.81583ZM12.0674 5.81583C12.0234 5.68894 11.9805 5.56644 11.969 5.54584C11.9158 5.484 11.8563 5.42803 11.7916 5.37883C11.7037 5.30814 11.5378 5.17063 11.4214 5.0732C11.1237 4.81991 10.9957 4.74811 10.8299 4.73585C10.7725 4.73067 10.7148 4.73986 10.6619 4.76257C10.6065 4.78383 10.5534 4.81089 10.5036 4.84329C10.436 4.89061 10.3701 4.95462 10.3701 4.97857C10.3887 5.02924 10.41 5.07887 10.4339 5.12722C10.5149 5.31534 10.5823 5.50921 10.6354 5.70728C10.6744 5.84644 10.7365 5.89489 11.0358 6.02128C11.3352 6.14767 11.3813 6.16378 11.4835 6.18383C11.616 6.20539 11.751 6.20667 11.8839 6.18772C11.9648 6.16517 12.0413 6.12883 12.1101 6.08028L12.1453 6.05133L12.0674 5.81583ZM12.0674 5.81583C12.0234 5.68894 11.9805 5.56644 11.969 5.54584C11.9158 5.484 11.8563 5.42803 11.7916 5.37883C11.7037 5.30814 11.5378 5.17063 11.4214 5.0732C11.1237 4.81991 10.9957 4.74811 10.8299 4.73585C10.7725 4.73067 10.7148 4.73986 10.6619 4.76257C10.6065 4.78383 10.5534 4.81089 10.5036 4.84329C10.436 4.89061 10.3701 4.95462 10.3701 4.97857C10.3887 5.02924 10.41 5.07887 10.4339 5.12722C10.5149 5.31534 10.5823 5.50921 10.6354 5.70728C10.6744 5.84644 10.7365 5.89489 11.0358 6.02128C11.3352 6.14767 11.3813 6.16378 11.4835 6.18383C11.616 6.20539 11.751 6.20667 11.8839 6.18772C11.9648 6.16517 12.0413 6.12883 12.1101 6.08028L12.1453 6.05133L12.0674 5.81583ZM12.0674 5.81583C12.0234 5.68894 11.9805 5.56644 11.969 5.54584C11.9158 5.484 11.8563 5.42803 11.7916 5.37883C11.7037 5.30814 11.5378 5.17063 11.4214 5.0732C11.1237 4.81991 10.9957 4.74811 10.8299 4.73585C10.7725 4.73067 10.7148 4.73986 10.6619 4.76257C10.6065 4.78383 10.5534 4.81089 10.5036 4.84329C10.436 4.89061 10.3701 4.95462 10.3701 4.97857C10.3887 5.02924 10.41 5.07887 10.4339 5.12722C10.5149 5.31534 10.5823 5.50921 10.6354 5.70728C10.6744 5.84644 10.7365 5.89489 11.0358 6.02128C11.3352 6.14767 11.3813 6.16378 11.4835 6.18383C11.616 6.20539 11.751 6.20667 11.8839 6.18772C11.9648 6.16517 12.0413 6.12883 12.1101 6.08028L12.1453 6.05133L12.0674 5.81583ZM12.0674 5.81583C12.0234 5.68894 11.9805 5.56644 11.969 5.54584C11.9158 5.484 11.8563 5.42803 11.7916 5.37883C11.7037 5.30814 11.5378 5.17063 11.4214 5.0732C11.1237 4.81991 10.9957 4.74811 10.8299 4.73585C10.7725 4.73067 10.7148 4.73986 10.6619 4.76257C10.6065 4.78383 10.5534 4.81089 10.5036 4.84329C10.436 4.89061 10.3701 4.95462 10.3701 4.97857C10.3887 5.02924 10.41 5.07887 10.4339 5.12722C10.5149 5.31534 10.5823 5.50921 10.6354 5.70728C10.6744 5.84644 10.7365 5.89489 11.0358 6.02128C11.3352 6.14767 11.3813 6.16378 11.4835 6.18383C11.616 6.20539 11.751 6.20667 11.8839 6.18772C11.9648 6.16517 12.0413 6.12883 12.1101 6.08028L12.1453 6.05133L12.0674 5.81583ZM12.0674 5.81583C12.0234 5.68894 11.9805 5.56644 11.969 5.54584C11.9158 5.484 11.8563 5.42803 11.7916 5.37883C11.7037 5.30814 11.5378 5.17063 11.4214 5.0732C11.1237 4.81991 10.9957 4.74811 10.8299 4.73585C10.7725 4.73067 10.7148 4.73986 10.6619 4.76257C10.6065 4.78383 10.5534 4.81089 10.5036 4.84329C10.436 4.89061 10.3701 4.95462 10.3701 4.97857C10.3887 5.02924 10.41 5.07887 10.4339 5.12722C10.5149 5.31534 10.5823 5.50921 10.6354 5.70728C10.6744 5.84644 10.7365 5.89489 11.0358 6.02128C11.3352 6.14767 11.3813 6.16378 11.4835 6.18383C11.616 6.20539 11.751 6.20667 11.8839 6.18772C11.9648 6.16517 12.0413 6.12883 12.1101 6.08028L12.1453 6.05133L12.0674 5.81583ZM12.0674 5.81583C12.0234 5.68894 11.9805 5.56644 11.969 5.54584C11.9158 5.484 11.8563 5.42803 11.7916 5.37883C11.7037 5.30814 11.5378 5.17063 11.4214 5.0732C11.1237 4.81991 10.9957 4.74811 10.8299 4.73585C10.7725 4.73067 10.7148 4.73986 10.6619 4.76257C10.6065 4.78383 10.5534 4.81089 10.5036 4.84329C10.436 4.89061 10.3701 4.95462 10.3701 4.97857C10.3887 5.02924 10.41 5.07887 10.4339 5.12722C10.5149 5.31534 10.5823 5.50921 10.6354 5.70728C10.6744 5.84644 10.7365 5.89489 11.0358 6.02128C11.3352 6.14767 11.3813 6.16378 11.4835 6.18383C11.616 6.20539 11.751 6.20667 11.8839 6.18772C11.9648 6.16517 12.0413 6.12883 12.1101 6.08028L12.1453 6.05133L12.0674 5.81583ZM12.0674 5.81583C12.0234 5.68894 11.9805 5.56644 11.969 5.54584C11.9158 5.484 11.8563 5.42803 11.7916 5.37883C11.7037 5.30814 11.5378 5.17063 11.4214 5.0732C11.1237 4.81991 10.9957 4.74811 10.8299 4.73585C10.7725 4.73067 10.7148 4.73986 10.6619 4.76257C10.6065 4.78383 10.5534 4.81089 10.5036 4.84329C10.436 4.89061 10.3701 4.95462 10.3701 4.97857C10.3887 5.02924 10.41 5.07887 10.4339 5.12722C10.5149 5.31534 10.5823 5.50921 10.6354 5.70728C10.6744 5.84644 10.7365 5.89489 11.0358 6.02128C11.3352 6.14767 11.3813 6.16378 11.4835 6.18383C11.616 6.20539 11.751 6.20667 11.8839 6.18772C11.9648 6.16517 12.0413 6.12883 12.1101 6.08028L12.1453 6.05133L12.0674 5.81583ZM12.0674 5.81583C12.0234 5.68894 11.9805 5.56644 11.969 5.54584C11.9158 5.484 11.8563 5.42803 11.7916 5.37883C11.7037 5.30814 11.5378 5.17063 11.4214 5.0732C11.1237 4.81991 10.9957 4.74811 10.8299 4.73585C10.7725 4.73067 10.7148 4.73986 10.6619 4.76257C10.6065 4.78383 10.5534 4.81089 10.5036 4.84329C10.436 4.89061 10.3701 4.95462 10.3701 4.97857C10.3887 5.02924 10.41 5.07887 10.4339 5.12722C10.5149 5.31534 10.5823 5.50921 10.6354 5.70728C10.6744 5.84644 10.7365 5.89489 11.0358 6.02128C11.3352 6.14767 11.3813 6.16378 11.4835 6.18383C11.616 6.20539 11.751 6.20667 11.8839 6.18772C11.9648 6.16517 12.0413 6.12883 12.1101 6.08028L12.1453 6.05133L12.0674 5.81583ZM15.8796 9.18889C15.7774 9.01556 15.6628 8.84995 15.5368 8.69345C15.4309 8.55706 15.1667 8.23361 14.8821 7.89172C14.7822 7.77261 14.6624 7.63122 14.6202 7.57778C14.5779 7.52439 14.5219 7.45922 14.4999 7.43417C14.478 7.40917 14.418 7.33844 14.3664 7.27717L14.1296 6.99489C13.6996 6.48167 13.2586 5.94222 13.1196 5.76294C12.9549 5.55029 12.9504 5.53582 12.7571 4.90231C12.7175 4.76813 12.6759 4.63676 12.6654 4.61115C12.6563 4.59052 12.6436 4.57169 12.6281 4.55548C12.5555 4.46919 12.3814 4.32222 12.0958 4.10677C11.9311 3.9804 11.7822 3.86461 11.7663 3.84902C11.612 3.7221 11.4473 3.59239 11.2792 3.46824C11.1644 3.38307 11.0484 3.30122 10.9336 3.22274C10.6736 3.03862 10.3979 2.87821 10.1098 2.74342C10.0856 2.73285 10.0614 2.72282 10.0385 2.71447C9.94283 2.6712 9.83936 2.64864 9.73468 2.64822H9.71274L9.6858 2.65212H9.66495C9.62534 2.65713 9.58529 2.66269 9.54524 2.66938C9.50508 2.67606 9.47436 2.67996 9.43865 2.68663C9.40293 2.69331 9.3727 2.69778 9.33973 2.70445C9.31888 2.70778 9.29798 2.71224 9.27719 2.71671H9.26506C9.22441 2.72449 9.18381 2.7334 9.14371 2.74231L9.07946 2.75678L9.03278 2.76792L8.98329 2.78016C8.92837 2.79352 8.879 2.80688 8.82841 2.82081L8.71194 2.85531L8.65165 2.87424C8.61017 2.89031 8.567 2.90153 8.52305 2.90764C8.54187 2.81995 8.5653 2.73335 8.59338 2.64822C8.85211 1.7781 8.93885 1.33441 8.95805 0.755444C8.96738 0.423092 8.92892 0.0144743 8.88668 0C8.8773 0 8.84926 0.0300618 8.82243 0.0729278C8.79544 0.115793 8.72237 0.233258 8.66152 0.33402C8.48355 0.608711 8.29038 0.873006 8.08311 1.12564C7.77501 1.48694 7.27247 1.92897 6.92536 2.14274C6.68309 2.29137 6.5112 2.35986 6.04652 2.48009V2.48456C5.94036 2.51462 5.83053 2.54635 5.71702 2.57974L5.72086 3.10472L5.73189 4.23093L5.14744 3.2734L4.89645 2.86256C4.579 2.98913 4.27003 3.13661 3.97154 3.30402L4.07535 3.92418L4.26152 5.03424L3.53324 4.1836L3.20371 3.79893C2.91632 4.01038 2.64497 4.24335 2.39193 4.49591L2.6292 5.03424L3.08176 6.063L2.16783 5.42282L1.80205 5.16618C1.57707 5.45583 1.37348 5.76194 1.19295 6.08194L1.49172 6.47167L2.17169 7.36233L1.13418 6.95928L0.815613 6.83572C0.65304 7.20828 0.516132 7.59189 0.405881 7.98367L0.786509 8.262L1.68562 8.9245L0.577797 8.83206L0.209261 8.80139C0.142258 9.14317 0.091724 9.4895 0.0576711 9.83744L0.555825 10.0963L1.54446 10.6102L0.437745 10.6964L0.00384588 10.7282C-0.00439331 11.0661 0.00054869 11.404 0.0192238 11.7397L0.616244 11.9495L1.66584 12.3192L0.579443 12.5564L0.101062 12.6605C0.148846 13.0502 0.214204 13.4398 0.294939 13.8139L0.701928 13.8373L1.81083 13.9008L0.830448 14.4313L0.492667 14.6146C0.634448 15.1249 0.810434 15.6248 1.01939 16.1108C1.01939 16.1108 6.38211 15.5876 12.0677 20C12.4646 18.8469 12.5913 17.6162 12.438 16.4048C12.3351 15.5896 12.1053 14.7961 11.757 14.0539C11.1638 12.5742 10.7354 12.1888 10.6503 12.1238L10.6349 12.1128C10.6349 12.1338 10.6349 12.6782 10.0308 12.2118C8.93655 11.3466 8.092 10.199 7.58551 8.88939C7.40068 8.41311 7.29452 7.90922 7.27132 7.398V7.39356L7.26808 7.38017C7.42608 7.723 7.61859 8.04839 7.84254 8.35111C8.01168 8.56517 8.20337 8.75983 8.41426 8.93167C8.81579 9.23283 9.28602 9.43272 9.85659 9.553C9.94672 9.57078 10.0834 9.60028 10.1641 9.61756C10.3241 9.65261 10.5937 9.69995 10.8782 9.74172C10.9793 9.75622 11.1325 9.78622 11.2188 9.80795C11.7767 9.94717 12.5918 10.3051 12.778 10.4966C12.8329 10.5522 12.8709 10.6374 12.9977 10.9782C13.1076 11.2693 13.1504 11.3756 13.1878 11.4152C13.1899 11.4177 13.1924 11.4201 13.1949 11.4223C13.2499 11.4742 14.0583 11.5816 14.4883 11.5977C14.7153 11.6152 14.9429 11.5704 15.1468 11.4681C15.2428 11.4271 15.3289 11.3658 15.3995 11.2883C15.4563 11.2329 15.5057 11.1702 15.5461 11.1017C15.6056 10.9474 15.6562 10.7898 15.6977 10.6297C15.7834 10.3223 15.8361 10.1542 15.9175 9.92322C15.9295 9.88817 15.9428 9.85133 15.9565 9.81183C16.0283 9.60872 16.0168 9.44 15.8796 9.19056V9.18889ZM5.83124 5.03424C4.25164 7.02556 4.06435 9.33472 6.98466 11.8961C6.10742 11.7678 5.2491 11.5305 4.42905 11.1897C4.52187 11.3043 6.34755 13.5122 9.2717 14.4743H9.27499C9.30462 14.4848 9.3343 14.4942 9.36283 14.5026C9.75503 14.6201 10.0126 14.5455 10.028 14.1903C10.0609 14.2376 11.1924 15.8888 11.0018 17.5255C10.1305 16.5599 9.13257 15.7202 8.03588 15.0298C8.28012 15.3904 8.44476 15.8002 8.51866 16.2312C8.22537 16.0023 5.90322 14.2421 3.17404 13.6241C1.99813 7.48428 5.83124 5.03424 5.83124 5.03424ZM15.5242 9.64761C15.4578 9.85867 15.2672 10.3869 15.2496 10.4064C15.2433 10.4134 15.2353 10.4187 15.2266 10.4217C15.2177 10.4247 15.2082 10.4254 15.1991 10.4237C15.1876 10.4211 15.1771 10.4154 15.1684 10.4074C15.1596 10.3994 15.1532 10.3893 15.1496 10.378C15.1418 10.3574 15.1057 10.2182 15.0683 10.0662L15.0008 9.79122L15.0342 9.69211C15.0425 9.66761 15.0497 9.6465 15.0551 9.62811C15.0551 9.622 15.0591 9.61644 15.0607 9.61083C15.07 9.59072 15.0751 9.56878 15.076 9.54656C15.0769 9.52422 15.0733 9.50206 15.0656 9.48122C15.0658 9.47894 15.0658 9.47672 15.0656 9.4745C15.0435 9.42211 15.0195 9.39322 14.6053 8.92617C14.4515 8.75245 14.166 8.42511 13.9643 8.19794C13.7628 7.97078 13.5332 7.70694 13.447 7.61344C13.3607 7.51994 13.2076 7.34844 13.1086 7.23717C12.8527 6.94983 12.4754 6.56911 12.3869 6.51011C12.344 6.47461 12.2937 6.44944 12.2398 6.43656C12.2042 6.43556 12.1689 6.44278 12.1365 6.45772C11.9899 6.51428 11.8335 6.53967 11.6769 6.53233C11.4718 6.53683 11.2679 6.5025 11.0753 6.431C10.7749 6.32917 10.3921 6.14378 10.2779 6.04578C10.2042 5.98117 10.1504 5.85539 10.0582 5.53694C10.0215 5.40097 9.9775 5.26717 9.92637 5.13612C9.89834 5.0682 9.8714 4.99694 9.86701 4.97857C9.84397 4.84997 10.1268 4.62172 10.3965 4.55158L10.4844 4.52876V4.43691C10.4844 4.20365 10.4097 4.02773 10.2345 3.84401C10.1735 3.78055 10.1395 3.74548 10.1472 3.73991C10.1548 3.73434 10.2317 3.77053 10.4004 3.85571C10.8963 4.11431 11.3736 4.40844 11.8284 4.73585C11.937 4.812 12.04 4.89609 12.1365 4.98748C12.2091 5.05752 12.2679 5.14081 12.31 5.23298L12.3135 5.24022C12.3425 5.30146 12.3738 5.37828 12.4133 5.48071C12.4177 5.49296 12.4227 5.5052 12.4276 5.51857C12.4732 5.64689 12.5258 5.7725 12.5852 5.89489C12.6416 5.99067 12.8287 6.22633 13.1466 6.60189L13.4239 6.93089L13.4311 6.93983L13.6431 7.1915C13.7759 7.349 14.0621 7.68356 14.2797 7.93245C14.9558 8.70845 15.3336 9.15161 15.4407 9.29239C15.487 9.34822 15.5195 9.4145 15.5352 9.48561C15.5448 9.53972 15.5409 9.59533 15.5242 9.64761ZM11.9717 5.54752C11.9185 5.48567 11.8591 5.42969 11.7944 5.38051C11.7065 5.30982 11.5406 5.1723 11.4242 5.07487C11.1265 4.82159 10.9985 4.74976 10.8326 4.73751C10.7753 4.73234 10.7176 4.74152 10.6645 4.76423C10.6083 4.7848 10.5544 4.8113 10.5036 4.84329C10.436 4.89061 10.3701 4.95462 10.3701 4.97857C10.3887 5.02924 10.41 5.07887 10.4339 5.12722C10.5149 5.31534 10.5823 5.50921 10.6354 5.70728C10.6744 5.84644 10.7365 5.89489 11.0358 6.02128C11.3352 6.14767 11.3813 6.16378 11.4835 6.18383C11.616 6.20539 11.751 6.20667 11.8839 6.18772C11.9648 6.16517 12.0413 6.12883 12.1101 6.08028L12.1453 6.05133L12.0674 5.8175C12.0234 5.69061 11.9805 5.567 11.9717 5.54752ZM12.0701 5.8175C12.0262 5.69061 11.9832 5.56811 11.9717 5.54752C11.9185 5.48567 11.8591 5.42969 11.7944 5.38051C11.7065 5.30982 11.5406 5.1723 11.4242 5.07487C11.1265 4.82159 10.9985 4.74976 10.8326 4.73751C10.7753 4.73234 10.7176 4.74152 10.6645 4.76423C10.6083 4.7848 10.5544 4.8113 10.5036 4.84329C10.436 4.89061 10.3701 4.95462 10.3701 4.97857C10.3887 5.02924 10.41 5.07887 10.4339 5.12722C10.5149 5.31534 10.5823 5.50921 10.6354 5.70728C10.6744 5.84644 10.7365 5.89489 11.0358 6.02128C11.3352 6.14767 11.3813 6.16378 11.4835 6.18383C11.616 6.20539 11.751 6.20667 11.8839 6.18772C11.9648 6.16517 12.0413 6.12883 12.1101 6.08028L12.1453 6.05133L12.0701 5.8175ZM12.0701 5.8175C12.0262 5.69061 11.9832 5.56811 11.9717 5.54752C11.9185 5.48567 11.8591 5.42969 11.7944 5.38051C11.7065 5.30982 11.5406 5.1723 11.4242 5.07487C11.1265 4.82159 10.9985 4.74976 10.8326 4.73751C10.7753 4.73234 10.7176 4.74152 10.6645 4.76423C10.6083 4.7848 10.5544 4.8113 10.5036 4.84329C10.436 4.89061 10.3701 4.95462 10.3701 4.97857C10.3887 5.02924 10.41 5.07887 10.4339 5.12722C10.5149 5.31534 10.5823 5.50921 10.6354 5.70728C10.6744 5.84644 10.7365 5.89489 11.0358 6.02128C11.3352 6.14767 11.3813 6.16378 11.4835 6.18383C11.616 6.20539 11.751 6.20667 11.8839 6.18772C11.9648 6.16517 12.0413 6.12883 12.1101 6.08028L12.1453 6.05133L12.0701 5.8175ZM12.0701 5.8175C12.0262 5.69061 11.9832 5.56811 11.9717 5.54752C11.9185 5.48567 11.8591 5.42969 11.7944 5.38051C11.7065 5.30982 11.5406 5.1723 11.4242 5.07487C11.1265 4.82159 10.9985 4.74976 10.8326 4.73751C10.7753 4.73234 10.7176 4.74152 10.6645 4.76423C10.6083 4.7848 10.5544 4.8113 10.5036 4.84329C10.436 4.89061 10.3701 4.95462 10.3701 4.97857C10.3887 5.02924 10.41 5.07887 10.4339 5.12722C10.5149 5.31534 10.5823 5.50921 10.6354 5.70728C10.6744 5.84644 10.7365 5.89489 11.0358 6.02128C11.3352 6.14767 11.3813 6.16378 11.4835 6.18383C11.616 6.20539 11.751 6.20667 11.8839 6.18772C11.9648 6.16517 12.0413 6.12883 12.1101 6.08028L12.1453 6.05133L12.0701 5.8175ZM12.0701 5.8175C12.0262 5.69061 11.9832 5.56811 11.9717 5.54752C11.9185 5.48567 11.8591 5.42969 11.7944 5.38051C11.7065 5.30982 11.5406 5.1723 11.4242 5.07487C11.1265 4.82159 10.9985 4.74976 10.8326 4.73751C10.7753 4.73234 10.7176 4.74152 10.6645 4.76423C10.6083 4.7848 10.5544 4.8113 10.5036 4.84329C10.436 4.89061 10.3701 4.95462 10.3701 4.97857C10.3887 5.02924 10.41 5.07887 10.4339 5.12722C10.5149 5.31534 10.5823 5.50921 10.6354 5.70728C10.6744 5.84644 10.7365 5.89489 11.0358 6.02128C11.3352 6.14767 11.3813 6.16378 11.4835 6.18383C11.616 6.20539 11.751 6.20667 11.8839 6.18772C11.9648 6.16517 12.0413 6.12883 12.1101 6.08028L12.1453 6.05133L12.0701 5.8175ZM12.0674 5.8175C12.0234 5.69061 11.9805 5.56811 11.969 5.54752C11.9158 5.48567 11.8563 5.42969 11.7916 5.38051C11.7037 5.30982 11.5378 5.1723 11.4214 5.07487C11.1237 4.82159 10.9957 4.74976 10.8299 4.73751C10.7725 4.73234 10.7148 4.74152 10.6619 4.76423C10.6066 4.78497 10.5535 4.81147 10.5036 4.84329C10.436 4.89061 10.3701 4.95462 10.3701 4.97857C10.3887 5.02924 10.41 5.07887 10.4339 5.12722C10.5149 5.31534 10.5823 5.50921 10.6354 5.70728C10.6744 5.84644 10.7365 5.89489 11.0358 6.02128C11.3352 6.14767 11.3813 6.16378 11.4835 6.18383C11.616 6.20539 11.751 6.20667 11.8839 6.18772C11.9648 6.16517 12.0413 6.12883 12.1101 6.08028L12.1453 6.05133L12.0674 5.8175ZM12.0674 5.8175C12.0234 5.69061 11.9805 5.56811 11.969 5.54752C11.9158 5.48567 11.8563 5.42969 11.7916 5.38051C11.7037 5.30982 11.5378 5.1723 11.4214 5.07487C11.1237 4.82159 10.9957 4.74976 10.8299 4.73751C10.7725 4.73234 10.7148 4.74152 10.6619 4.76423C10.6066 4.78497 10.5535 4.81147 10.5036 4.84329C10.436 4.89061 10.3701 4.95462 10.3701 4.97857C10.3887 5.02924 10.41 5.07887 10.4339 5.12722C10.5149 5.31534 10.5823 5.50921 10.6354 5.70728C10.6744 5.84644 10.7365 5.89489 11.0358 6.02128C11.3352 6.14767 11.3813 6.16378 11.4835 6.18383C11.616 6.20539 11.751 6.20667 11.8839 6.18772C11.9648 6.16517 12.0413 6.12883 12.1101 6.08028L12.1453 6.05133L12.0674 5.8175ZM12.0674 5.8175C12.0234 5.69061 11.9805 5.56811 11.969 5.54752C11.9158 5.48567 11.8563 5.42969 11.7916 5.38051C11.7037 5.30982 11.5378 5.1723 11.4214 5.07487C11.1237 4.82159 10.9957 4.74976 10.8299 4.73751C10.7725 4.73234 10.7148 4.74152 10.6619 4.76423C10.6066 4.78497 10.5535 4.81147 10.5036 4.84329C10.436 4.89061 10.3701 4.95462 10.3701 4.97857C10.3887 5.02924 10.41 5.07887 10.4339 5.12722C10.5149 5.31534 10.5823 5.50921 10.6354 5.70728C10.6744 5.84644 10.7365 5.89489 11.0358 6.02128C11.3352 6.14767 11.3813 6.16378 11.4835 6.18383C11.616 6.20539 11.751 6.20667 11.8839 6.18772C11.9648 6.16517 12.0413 6.12883 12.1101 6.08028L12.1453 6.05133L12.0674 5.8175ZM12.0674 5.8175C12.0234 5.69061 11.9805 5.56811 11.969 5.54752C11.9158 5.48567 11.8563 5.42969 11.7916 5.38051C11.7037 5.30982 11.5378 5.1723 11.4214 5.07487C11.1237 4.82159 10.9957 4.74976 10.8299 4.73751C10.7725 4.73234 10.7148 4.74152 10.6619 4.76423C10.6066 4.78497 10.5535 4.81147 10.5036 4.84329C10.436 4.89061 10.3701 4.95462 10.3701 4.97857C10.3887 5.02924 10.41 5.07887 10.4339 5.12722C10.5149 5.31534 10.5823 5.50921 10.6354 5.70728C10.6744 5.84644 10.7365 5.89489 11.0358 6.02128C11.3352 6.14767 11.3813 6.16378 11.4835 6.18383C11.616 6.20539 11.751 6.20667 11.8839 6.18772C11.9648 6.16517 12.0413 6.12883 12.1101 6.08028L12.1453 6.05133L12.0674 5.8175ZM12.0674 5.8175C12.0234 5.69061 11.9805 5.56811 11.969 5.54752C11.9158 5.48567 11.8563 5.42969 11.7916 5.38051C11.7037 5.30982 11.5378 5.1723 11.4214 5.07487C11.1237 4.82159 10.9957 4.74976 10.8299 4.73751C10.7725 4.73234 10.7148 4.74152 10.6619 4.76423C10.6066 4.78497 10.5535 4.81147 10.5036 4.84329C10.436 4.89061 10.3701 4.95462 10.3701 4.97857C10.3887 5.02924 10.41 5.07887 10.4339 5.12722C10.5149 5.31534 10.5823 5.50921 10.6354 5.70728C10.6744 5.84644 10.7365 5.89489 11.0358 6.02128C11.3352 6.14767 11.3813 6.16378 11.4835 6.18383C11.616 6.20539 11.751 6.20667 11.8839 6.18772C11.9648 6.16517 12.0413 6.12883 12.1101 6.08028L12.1453 6.05133L12.0674 5.8175ZM12.0674 5.8175C12.0234 5.69061 11.9805 5.56811 11.969 5.54752C11.9158 5.48567 11.8563 5.42969 11.7916 5.38051C11.7037 5.30982 11.5378 5.1723 11.4214 5.07487C11.1237 4.82159 10.9957 4.74976 10.8299 4.73751C10.7725 4.73234 10.7148 4.74152 10.6619 4.76423C10.6066 4.78497 10.5535 4.81147 10.5036 4.84329C10.436 4.89061 10.3701 4.95462 10.3701 4.97857C10.3887 5.02924 10.41 5.07887 10.4339 5.12722C10.5149 5.31534 10.5823 5.50921 10.6354 5.70728C10.6744 5.84644 10.7365 5.89489 11.0358 6.02128C11.3352 6.14767 11.3813 6.16378 11.4835 6.18383C11.616 6.20539 11.751 6.20667 11.8839 6.18772C11.9648 6.16517 12.0413 6.12883 12.1101 6.08028L12.1453 6.05133L12.0674 5.8175ZM12.0674 5.8175C12.0234 5.69061 11.9805 5.56811 11.969 5.54752C11.9158 5.48567 11.8563 5.42969 11.7916 5.38051C11.7037 5.30982 11.5378 5.1723 11.4214 5.07487C11.1237 4.82159 10.9957 4.74976 10.8299 4.73751C10.7725 4.73234 10.7148 4.74152 10.6619 4.76423C10.6066 4.78497 10.5535 4.81147 10.5036 4.84329C10.436 4.89061 10.3701 4.95462 10.3701 4.97857C10.3887 5.02924 10.41 5.07887 10.4339 5.12722C10.5149 5.31534 10.5823 5.50921 10.6354 5.70728C10.6744 5.84644 10.7365 5.89489 11.0358 6.02128C11.3352 6.14767 11.3813 6.16378 11.4835 6.18383C11.616 6.20539 11.751 6.20667 11.8839 6.18772C11.9648 6.16517 12.0413 6.12883 12.1101 6.08028L12.1453 6.05133L12.0674 5.8175ZM12.0674 5.8175C12.0234 5.69061 11.9805 5.56811 11.969 5.54752C11.9158 5.48567 11.8563 5.42969 11.7916 5.38051C11.7037 5.30982 11.5378 5.1723 11.4214 5.07487C11.1237 4.82159 10.9957 4.74976 10.8299 4.73751C10.7725 4.73234 10.7148 4.74152 10.6619 4.76423C10.6066 4.78497 10.5535 4.81147 10.5036 4.84329C10.436 4.89061 10.3701 4.95462 10.3701 4.97857C10.3887 5.02924 10.41 5.07887 10.4339 5.12722C10.5149 5.31534 10.5823 5.50921 10.6354 5.70728C10.6744 5.84644 10.7365 5.89489 11.0358 6.02128C11.3352 6.14767 11.3813 6.16378 11.4835 6.18383C11.616 6.20539 11.751 6.20667 11.8839 6.18772C11.9648 6.16517 12.0413 6.12883 12.1101 6.08028L12.1453 6.05133L12.0674 5.8175ZM12.0674 5.8175C12.0234 5.69061 11.9805 5.56811 11.969 5.54752C11.9158 5.48567 11.8563 5.42969 11.7916 5.38051C11.7037 5.30982 11.5378 5.1723 11.4214 5.07487C11.1237 4.82159 10.9957 4.74976 10.8299 4.73751C10.7725 4.73234 10.7148 4.74152 10.6619 4.76423C10.6066 4.78497 10.5535 4.81147 10.5036 4.84329C10.436 4.89061 10.3701 4.95462 10.3701 4.97857C10.3887 5.02924 10.41 5.07887 10.4339 5.12722C10.5149 5.31534 10.5823 5.50921 10.6354 5.70728C10.6744 5.84644 10.7365 5.89489 11.0358 6.02128C11.3352 6.14767 11.3813 6.16378 11.4835 6.18383C11.616 6.20539 11.751 6.20667 11.8839 6.18772C11.9648 6.16517 12.0413 6.12883 12.1101 6.08028L12.1453 6.05133L12.0674 5.8175ZM12.0674 5.8175C12.0234 5.69061 11.9805 5.56811 11.969 5.54752C11.9158 5.48567 11.8563 5.42969 11.7916 5.38051C11.7037 5.30982 11.5378 5.1723 11.4214 5.07487C11.1237 4.82159 10.9957 4.74976 10.8299 4.73751C10.7725 4.73234 10.7148 4.74152 10.6619 4.76423C10.6066 4.78497 10.5535 4.81147 10.5036 4.84329C10.436 4.89061 10.3701 4.95462 10.3701 4.97857C10.3887 5.02924 10.41 5.07887 10.4339 5.12722C10.5149 5.31534 10.5823 5.50921 10.6354 5.70728C10.6744 5.84644 10.7365 5.89489 11.0358 6.02128C11.3352 6.14767 11.3813 6.16378 11.4835 6.18383C11.616 6.20539 11.751 6.20667 11.8839 6.18772C11.9648 6.16517 12.0413 6.12883 12.1101 6.08028L12.1453 6.05133L12.0674 5.8175ZM12.0674 5.8175C12.0234 5.69061 11.9805 5.56811 11.969 5.54752C11.9158 5.48567 11.8563 5.42969 11.7916 5.38051C11.7037 5.30982 11.5378 5.1723 11.4214 5.07487C11.1237 4.82159 10.9957 4.74976 10.8299 4.73751C10.7725 4.73234 10.7148 4.74152 10.6619 4.76423C10.6066 4.78497 10.5535 4.81147 10.5036 4.84329C10.436 4.89061 10.3701 4.95462 10.3701 4.97857C10.3887 5.02924 10.41 5.07887 10.4339 5.12722C10.5149 5.31534 10.5823 5.50921 10.6354 5.70728C10.6744 5.84644 10.7365 5.89489 11.0358 6.02128C11.3352 6.14767 11.3813 6.16378 11.4835 6.18383C11.616 6.20539 11.751 6.20667 11.8839 6.18772C11.9648 6.16517 12.0413 6.12883 12.1101 6.08028L12.1453 6.05133L12.0674 5.8175ZM12.0674 5.8175C12.0234 5.69061 11.9805 5.56811 11.969 5.54752C11.9158 5.48567 11.8563 5.42969 11.7916 5.38051C11.7037 5.30982 11.5378 5.1723 11.4214 5.07487C11.1237 4.82159 10.9957 4.74976 10.8299 4.73751C10.7725 4.73234 10.7148 4.74152 10.6619 4.76423C10.6066 4.78497 10.5535 4.81147 10.5036 4.84329C10.436 4.89061 10.3701 4.95462 10.3701 4.97857C10.3887 5.02924 10.41 5.07887 10.4339 5.12722C10.5149 5.31534 10.5823 5.50921 10.6354 5.70728C10.6744 5.84644 10.7365 5.89489 11.0358 6.02128C11.3352 6.14767 11.3813 6.16378 11.4835 6.18383C11.616 6.20539 11.751 6.20667 11.8839 6.18772C11.9648 6.16517 12.0413 6.12883 12.1101 6.08028L12.1453 6.05133L12.0674 5.8175ZM12.0674 5.8175C12.0234 5.69061 11.9805 5.56811 11.969 5.54752C11.9158 5.48567 11.8563 5.42969 11.7916 5.38051C11.7037 5.30982 11.5378 5.1723 11.4214 5.07487C11.1237 4.82159 10.9957 4.74976 10.8299 4.73751C10.7725 4.73234 10.7148 4.74152 10.6619 4.76423C10.6066 4.78497 10.5535 4.81147 10.5036 4.84329C10.436 4.89061 10.3701 4.95462 10.3701 4.97857C10.3887 5.02924 10.41 5.07887 10.4339 5.12722C10.5149 5.31534 10.5823 5.50921 10.6354 5.70728C10.6744 5.84644 10.7365 5.89489 11.0358 6.02128C11.3352 6.14767 11.3813 6.16378 11.4835 6.18383C11.616 6.20539 11.751 6.20667 11.8839 6.18772C11.9648 6.16517 12.0413 6.12883 12.1101 6.08028L12.1453 6.05133L12.0674 5.8175ZM15.0008 9.79122L15.0342 9.69211C15.0425 9.66761 15.0497 9.6465 15.0551 9.62811L15.0008 9.79122ZM12.0674 5.8175C12.0234 5.69061 11.9805 5.56811 11.969 5.54752C11.9158 5.48567 11.8563 5.42969 11.7916 5.38051C11.7037 5.30982 11.5378 5.1723 11.4214 5.07487C11.1237 4.82159 10.9957 4.74976 10.8299 4.73751C10.7725 4.73234 10.7148 4.74152 10.6619 4.76423C10.6066 4.78497 10.5535 4.81147 10.5036 4.84329C10.436 4.89061 10.3701 4.95462 10.3701 4.97857C10.3887 5.02924 10.41 5.07887 10.4339 5.12722C10.5149 5.31534 10.5823 5.50921 10.6354 5.70728C10.6744 5.84644 10.7365 5.89489 11.0358 6.02128C11.3352 6.14767 11.3813 6.16378 11.4835 6.18383C11.616 6.20539 11.751 6.20667 11.8839 6.18772C11.9648 6.16517 12.0413 6.12883 12.1101 6.08028L12.1453 6.05133L12.0674 5.8175ZM12.0674 5.8175C12.0234 5.69061 11.9805 5.56811 11.969 5.54752C11.9158 5.48567 11.8563 5.42969 11.7916 5.38051C11.7037 5.30982 11.5378 5.1723 11.4214 5.07487C11.1237 4.82159 10.9957 4.74976 10.8299 4.73751C10.7725 4.73234 10.7148 4.74152 10.6619 4.76423C10.6066 4.78497 10.5535 4.81147 10.5036 4.84329C10.436 4.89061 10.3701 4.95462 10.3701 4.97857C10.3887 5.02924 10.41 5.07887 10.4339 5.12722C10.5149 5.31534 10.5823 5.50921 10.6354 5.70728C10.6744 5.84644 10.7365 5.89489 11.0358 6.02128C11.3352 6.14767 11.3813 6.16378 11.4835 6.18383C11.616 6.20539 11.751 6.20667 11.8839 6.18772C11.9648 6.16517 12.0413 6.12883 12.1101 6.08028L12.1453 6.05133L12.0674 5.8175ZM12.0674 5.8175C12.0234 5.69061 11.9805 5.56811 11.969 5.54752C11.9158 5.48567 11.8563 5.42969 11.7916 5.38051C11.7037 5.30982 11.5378 5.1723 11.4214 5.07487C11.1237 4.82159 10.9957 4.74976 10.8299 4.73751C10.7725 4.73234 10.7148 4.74152 10.6619 4.76423C10.6066 4.78497 10.5535 4.81147 10.5036 4.84329C10.436 4.89061 10.3701 4.95462 10.3701 4.97857C10.3887 5.02924 10.41 5.07887 10.4339 5.12722C10.5149 5.31534 10.5823 5.50921 10.6354 5.70728C10.6744 5.84644 10.7365 5.89489 11.0358 6.02128C11.3352 6.14767 11.3813 6.16378 11.4835 6.18383C11.616 6.20539 11.751 6.20667 11.8839 6.18772C11.9648 6.16517 12.0413 6.12883 12.1101 6.08028L12.1453 6.05133L12.0674 5.8175ZM12.0674 5.8175C12.0234 5.69061 11.9805 5.56811 11.969 5.54752C11.9158 5.48567 11.8563 5.42969 11.7916 5.38051C11.7037 5.30982 11.5378 5.1723 11.4214 5.07487C11.1237 4.82159 10.9957 4.74976 10.8299 4.73751C10.7725 4.73234 10.7148 4.74152 10.6619 4.76423C10.6066 4.78497 10.5535 4.81147 10.5036 4.84329C10.436 4.89061 10.3701 4.95462 10.3701 4.97857C10.3887 5.02924 10.41 5.07887 10.4339 5.12722C10.5149 5.31534 10.5823 5.50921 10.6354 5.70728C10.6744 5.84644 10.7365 5.89489 11.0358 6.02128C11.3352 6.14767 11.3813 6.16378 11.4835 6.18383C11.616 6.20539 11.751 6.20667 11.8839 6.18772C11.9648 6.16517 12.0413 6.12883 12.1101 6.08028L12.1453 6.05133L12.0674 5.8175ZM12.0674 5.8175C12.0234 5.69061 11.9805 5.56811 11.969 5.54752C11.9158 5.48567 11.8563 5.42969 11.7916 5.38051C11.7037 5.30982 11.5378 5.1723 11.4214 5.07487C11.1237 4.82159 10.9957 4.74976 10.8299 4.73751C10.7725 4.73234 10.7148 4.74152 10.6619 4.76423C10.6066 4.78497 10.5535 4.81147 10.5036 4.84329C10.436 4.89061 10.3701 4.95462 10.3701 4.97857C10.3887 5.02924 10.41 5.07887 10.4339 5.12722C10.5149 5.31534 10.5823 5.50921 10.6354 5.70728C10.6744 5.84644 10.7365 5.89489 11.0358 6.02128C11.3352 6.14767 11.3813 6.16378 11.4835 6.18383C11.616 6.20539 11.751 6.20667 11.8839 6.18772C11.9648 6.16517 12.0413 6.12883 12.1101 6.08028L12.1453 6.05133L12.0674 5.8175ZM12.0674 5.8175C12.0234 5.69061 11.9805 5.56811 11.969 5.54752C11.9158 5.48567 11.8563 5.42969 11.7916 5.38051C11.7037 5.30982 11.5378 5.1723 11.4214 5.07487C11.1237 4.82159 10.9957 4.74976 10.8299 4.73751C10.7725 4.73234 10.7148 4.74152 10.6619 4.76423C10.6066 4.78497 10.5535 4.81147 10.5036 4.84329C10.436 4.89061 10.3701 4.95462 10.3701 4.97857C10.3887 5.02924 10.41 5.07887 10.4339 5.12722C10.5149 5.31534 10.5823 5.50921 10.6354 5.70728C10.6744 5.84644 10.7365 5.89489 11.0358 6.02128C11.3352 6.14767 11.3813 6.16378 11.4835 6.18383C11.616 6.20539 11.751 6.20667 11.8839 6.18772C11.9648 6.16517 12.0413 6.12883 12.1101 6.08028L12.1453 6.05133L12.0674 5.8175ZM12.0674 5.8175C12.0234 5.69061 11.9805 5.56811 11.969 5.54752C11.9158 5.48567 11.8563 5.42969 11.7916 5.38051C11.7037 5.30982 11.5378 5.1723 11.4214 5.07487C11.1237 4.82159 10.9957 4.74976 10.8299 4.73751C10.7725 4.73234 10.7148 4.74152 10.6619 4.76423C10.6066 4.78497 10.5535 4.81147 10.5036 4.84329C10.436 4.89061 10.3701 4.95462 10.3701 4.97857C10.3887 5.02924 10.41 5.07887 10.4339 5.12722C10.5149 5.31534 10.5823 5.50921 10.6354 5.70728C10.6744 5.84644 10.7365 5.89489 11.0358 6.02128C11.3352 6.14767 11.3813 6.16378 11.4835 6.18383C11.616 6.20539 11.751 6.20667 11.8839 6.18772C11.9648 6.16517 12.0413 6.12883 12.1101 6.08028L12.1453 6.05133L12.0674 5.8175ZM12.0674 5.8175C12.0234 5.69061 11.9805 5.56811 11.969 5.54752C11.9158 5.48567 11.8563 5.42969 11.7916 5.38051C11.7037 5.30982 11.5378 5.1723 11.4214 5.07487C11.1237 4.82159 10.9957 4.74976 10.8299 4.73751C10.7725 4.73234 10.7148 4.74152 10.6619 4.76423C10.6066 4.78497 10.5535 4.81147 10.5036 4.84329C10.436 4.89061 10.3701 4.95462 10.3701 4.97857C10.3887 5.02924 10.41 5.07887 10.4339 5.12722C10.5149 5.31534 10.5823 5.50921 10.6354 5.70728C10.6744 5.84644 10.7365 5.89489 11.0358 6.02128C11.3352 6.14767 11.3813 6.16378 11.4835 6.18383C11.616 6.20539 11.751 6.20667 11.8839 6.18772C11.9648 6.16517 12.0413 6.12883 12.1101 6.08028L12.1453 6.05133L12.0674 5.8175ZM12.0674 5.8175C12.0234 5.69061 11.9805 5.56811 11.969 5.54752C11.9158 5.48567 11.8563 5.42969 11.7916 5.38051C11.7037 5.30982 11.5378 5.1723 11.4214 5.07487C11.1237 4.82159 10.9957 4.74976 10.8299 4.73751C10.7725 4.73234 10.7148 4.74152 10.6619 4.76423C10.6066 4.78497 10.5535 4.81147 10.5036 4.84329C10.436 4.89061 10.3701 4.95462 10.3701 4.97857C10.3887 5.02924 10.41 5.07887 10.4339 5.12722C10.5149 5.31534 10.5823 5.50921 10.6354 5.70728C10.6744 5.84644 10.7365 5.89489 11.0358 6.02128C11.3352 6.14767 11.3813 6.16378 11.4835 6.18383C11.616 6.20539 11.751 6.20667 11.8839 6.18772C11.9648 6.16517 12.0413 6.12883 12.1101 6.08028L12.1453 6.05133L12.0674 5.8175ZM12.0674 5.8175C12.0234 5.69061 11.9805 5.56811 11.969 5.54752C11.9158 5.48567 11.8563 5.42969 11.7916 5.38051C11.7037 5.30982 11.5378 5.1723 11.4214 5.07487C11.1237 4.82159 10.9957 4.74976 10.8299 4.73751C10.7725 4.73234 10.7148 4.74152 10.6619 4.76423C10.6066 4.78497 10.5535 4.81147 10.5036 4.84329C10.436 4.89061 10.3701 4.95462 10.3701 4.97857C10.3887 5.02924 10.41 5.07887 10.4339 5.12722C10.5149 5.31534 10.5823 5.50921 10.6354 5.70728C10.6744 5.84644 10.7365 5.89489 11.0358 6.02128C11.3352 6.14767 11.3813 6.16378 11.4835 6.18383C11.616 6.20539 11.751 6.20667 11.8839 6.18772C11.9648 6.16517 12.0413 6.12883 12.1101 6.08028L12.1453 6.05133L12.0674 5.8175ZM12.0674 5.8175C12.0234 5.69061 11.9805 5.56811 11.969 5.54752C11.9158 5.48567 11.8563 5.42969 11.7916 5.38051C11.7037 5.30982 11.5378 5.1723 11.4214 5.07487C11.1237 4.82159 10.9957 4.74976 10.8299 4.73751C10.7725 4.73234 10.7148 4.74152 10.6619 4.76423C10.6066 4.78497 10.5535 4.81147 10.5036 4.84329C10.436 4.89061 10.3701 4.95462 10.3701 4.97857C10.3887 5.02924 10.41 5.07887 10.4339 5.12722C10.5149 5.31534 10.5823 5.50921 10.6354 5.70728C10.6744 5.84644 10.7365 5.89489 11.0358 6.02128C11.3352 6.14767 11.3813 6.16378 11.4835 6.18383C11.616 6.20539 11.751 6.20667 11.8839 6.18772C11.9648 6.16517 12.0413 6.12883 12.1101 6.08028L12.1453 6.05133L12.0674 5.8175ZM12.0674 5.8175C12.0234 5.69061 11.9805 5.56811 11.969 5.54752C11.9158 5.48567 11.8563 5.42969 11.7916 5.38051C11.7037 5.30982 11.5378 5.1723 11.4214 5.07487C11.1237 4.82159 10.9957 4.74976 10.8299 4.73751C10.7725 4.73234 10.7148 4.74152 10.6619 4.76423C10.6066 4.78497 10.5535 4.81147 10.5036 4.84329C10.436 4.89061 10.3701 4.95462 10.3701 4.97857C10.3887 5.02924 10.41 5.07887 10.4339 5.12722C10.5149 5.31534 10.5823 5.50921 10.6354 5.70728C10.6744 5.84644 10.7365 5.89489 11.0358 6.02128C11.3352 6.14767 11.3813 6.16378 11.4835 6.18383C11.616 6.20539 11.751 6.20667 11.8839 6.18772C11.9648 6.16517 12.0413 6.12883 12.1101 6.08028L12.1453 6.05133L12.0674 5.8175ZM12.0674 5.8175C12.0234 5.69061 11.9805 5.56811 11.969 5.54752C11.9158 5.48567 11.8563 5.42969 11.7916 5.38051C11.7037 5.30982 11.5378 5.1723 11.4214 5.07487C11.1237 4.82159 10.9957 4.74976 10.8299 4.73751C10.7725 4.73234 10.7148 4.74152 10.6619 4.76423C10.6066 4.78497 10.5535 4.81147 10.5036 4.84329C10.436 4.89061 10.3701 4.95462 10.3701 4.97857C10.3887 5.02924 10.41 5.07887 10.4339 5.12722C10.5149 5.31534 10.5823 5.50921 10.6354 5.70728C10.6744 5.84644 10.7365 5.89489 11.0358 6.02128C11.3352 6.14767 11.3813 6.16378 11.4835 6.18383C11.616 6.20539 11.751 6.20667 11.8839 6.18772C11.9648 6.16517 12.0413 6.12883 12.1101 6.08028L12.1453 6.05133L12.0674 5.8175ZM12.0674 5.8175C12.0234 5.69061 11.9805 5.56811 11.969 5.54752C11.9158 5.48567 11.8563 5.42969 11.7916 5.38051C11.7037 5.30982 11.5378 5.1723 11.4214 5.07487C11.1237 4.82159 10.9957 4.74976 10.8299 4.73751C10.7725 4.73234 10.7148 4.74152 10.6619 4.76423C10.6066 4.78497 10.5535 4.81147 10.5036 4.84329C10.436 4.89061 10.3701 4.95462 10.3701 4.97857C10.3887 5.02924 10.41 5.07887 10.4339 5.12722C10.5149 5.31534 10.5823 5.50921 10.6354 5.70728C10.6744 5.84644 10.7365 5.89489 11.0358 6.02128C11.3352 6.14767 11.3813 6.16378 11.4835 6.18383C11.616 6.20539 11.751 6.20667 11.8839 6.18772C11.9648 6.16517 12.0413 6.12883 12.1101 6.08028L12.1453 6.05133L12.0674 5.8175ZM12.0674 5.8175C12.0234 5.69061 11.9805 5.56811 11.969 5.54752C11.9158 5.48567 11.8563 5.42969 11.7916 5.38051C11.7037 5.30982 11.5378 5.1723 11.4214 5.07487C11.1237 4.82159 10.9957 4.74976 10.8299 4.73751C10.7725 4.73234 10.7148 4.74152 10.6619 4.76423C10.6066 4.78497 10.5535 4.81147 10.5036 4.84329C10.436 4.89061 10.3701 4.95462 10.3701 4.97857C10.3887 5.02924 10.41 5.07887 10.4339 5.12722C10.5149 5.31534 10.5823 5.50921 10.6354 5.70728C10.6744 5.84644 10.7365 5.89489 11.0358 6.02128C11.3352 6.14767 11.3813 6.16378 11.4835 6.18383C11.616 6.20539 11.751 6.20667 11.8839 6.18772C11.9648 6.16517 12.0413 6.12883 12.1101 6.08028L12.1453 6.05133L12.0674 5.8175Z" fill="white"/>
</svg>
