<svg width="20" height="20" viewBox="0 0 20 20" fill="none" xmlns="http://www.w3.org/2000/svg">
<g clip-path="url(#clip0_796_23266)">
<path d="M20 10C20 4.47715 15.5228 0 10 0C4.47715 0 0 4.47715 0 10C0 15.5228 4.47715 20 10 20C15.5228 20 20 15.5228 20 10Z" fill="black"/>
<path d="M7.4469 6.93952L4.83301 4.81713L5.95932 3.91895L7.4469 6.93952Z" fill="white"/>
<path d="M8.44345 6.36488L6.57129 3.56634L7.9123 3.04004L8.44345 6.36488Z" fill="white"/>
<path d="M9.56369 6.10908L8.59961 2.88305L10.0362 2.77539L9.56369 6.10908Z" fill="white"/>
<path d="M10.709 6.19451L10.7386 2.82764L12.1431 3.1482L10.709 6.19451Z" fill="white"/>
<path d="M11.7793 6.61481L12.8001 3.40625L14.0477 4.12655L11.7793 6.61481Z" fill="white"/>
<path d="M12.6777 7.33106L14.5989 4.56592L15.5788 5.62195L12.6777 7.33106Z" fill="white"/>
<path d="M13.3262 8.28158L15.9771 6.20557L16.6021 7.50347L13.3262 8.28158Z" fill="white"/>
<path d="M13.6641 9.38019L16.8091 8.17773L17.0238 9.60222L13.6641 9.38019Z" fill="white"/>
<path d="M13.6641 10.5292L17.0238 10.3071L16.8091 11.7316L13.6641 10.5292Z" fill="white"/>
<path d="M13.3262 11.627L16.6021 12.4051L15.9771 13.703L13.3262 11.627Z" fill="white"/>
<path d="M12.6777 12.5771L15.5788 14.2863L14.5989 15.3423L12.6777 12.5771Z" fill="white"/>
<path d="M11.7793 13.2939L14.0477 15.7823L12.8001 16.5024L11.7793 13.2939Z" fill="white"/>
<path d="M10.709 13.7139L12.1431 16.7602L10.7386 17.0808L10.709 13.7139Z" fill="white"/>
<path d="M9.5637 13.7993L10.0362 17.133L8.59961 17.0253L9.5637 13.7993Z" fill="white"/>
<path d="M8.44345 13.5439L7.9123 16.8688L6.57129 16.3425L8.44345 13.5439Z" fill="white"/>
<path d="M7.44788 12.9692L5.9603 15.9898L4.83398 15.0916L7.44788 12.9692Z" fill="white"/>
<path d="M9.6226 9.02393H8.91406V9.73246H9.6226V9.02393Z" fill="white"/>
<path d="M9.6223 9.02363L8.38236 7.78369L7.67383 8.49222L8.91377 9.73216L9.6223 9.02363Z" fill="white"/>
<path d="M8.38236 7.78369H7.67383V8.49223H8.38236V7.78369Z" fill="white"/>
<path d="M10.1528 9.02393H10.8613V9.73246H10.1528V9.02393Z" fill="white"/>
<path d="M10.1543 9.02363L11.3942 7.78369L12.1028 8.49222L10.8628 9.73216L10.1543 9.02363Z" fill="white"/>
<path d="M11.393 7.78369H12.1016V8.49223H11.393V7.78369Z" fill="white"/>
<path d="M9.6226 10.9722H8.91406V10.2636H9.6226V10.9722Z" fill="white"/>
<path d="M9.6223 10.9722L8.38236 12.2121L7.67383 11.5036L8.91377 10.2637L9.6223 10.9722Z" fill="white"/>
<path d="M8.38236 12.2119H7.67383V11.5034H8.38236V12.2119Z" fill="white"/>
<path d="M10.1528 10.9722H10.8613V10.2636H10.1528V10.9722Z" fill="white"/>
<path d="M10.1543 10.9722L11.3942 12.2121L12.1028 11.5036L10.8628 10.2637L10.1543 10.9722Z" fill="white"/>
<path d="M11.393 12.2119H12.1016V11.5034H11.393V12.2119Z" fill="white"/>
</g>
<defs>
<clipPath id="clip0_796_23266">
<rect width="20" height="20" fill="white"/>
</clipPath>
</defs>
</svg>
