<svg width="14" height="14" viewBox="0 0 14 14" fill="none" xmlns="http://www.w3.org/2000/svg">
<g clip-path="url(#clip0_175_683)">
<mask id="mask0_175_683" style="mask-type:luminance" maskUnits="userSpaceOnUse" x="0" y="0" width="14" height="14">
<path d="M14 0H0V14H14V0Z" fill="white"/>
</mask>
<g mask="url(#mask0_175_683)">
<mask id="mask1_175_683" style="mask-type:luminance" maskUnits="userSpaceOnUse" x="0" y="0" width="14" height="14">
<path d="M14 0H0V14H14V0Z" fill="white"/>
</mask>
<g mask="url(#mask1_175_683)">
<path fill-rule="evenodd" clip-rule="evenodd" d="M7 0C3.1339 0 0 3.1339 0 7C0 10.8661 3.1339 14 7 14C10.8661 14 14 10.8661 14 7C14 3.1339 10.8661 0 7 0ZM4.5122 1.9817C3.5239 2.47329 2.70206 3.24474 2.149 4.2H3.7751C3.9235 3.4839 4.1286 2.828 4.3806 2.261C4.4226 2.1658 4.4667 2.0727 4.5122 1.9817ZM1.4 7C1.4 6.517 1.4616 6.048 1.5764 5.6H3.5658C3.47675 6.53121 3.47675 7.46879 3.5658 8.4H1.5764C1.4589 7.94262 1.39963 7.47223 1.4 7ZM2.149 9.8C2.70206 10.7553 3.5239 11.5267 4.5122 12.0183C4.46626 11.9262 4.42238 11.833 4.3806 11.739C4.1286 11.172 3.9235 10.5161 3.7751 9.8H2.149ZM5.2094 9.8C5.3305 10.3124 5.4838 10.7744 5.6595 11.1706C5.8891 11.6872 6.1446 12.0617 6.3924 12.2976C6.6374 12.5307 6.8411 12.6 7 12.6C7.1589 12.6 7.3626 12.53 7.6069 12.2976C7.8554 12.0617 8.1109 11.6872 8.3405 11.1706C8.5162 10.7744 8.6695 10.3124 8.7906 9.8H5.2094ZM10.2249 9.8C10.0922 10.4659 9.88923 11.1159 9.6194 11.739C9.5774 11.8342 9.5333 11.9273 9.4878 12.0183C10.4761 11.5267 11.2979 10.7553 11.851 9.8H10.2249ZM12.4229 8.4H10.4342C10.5232 7.46879 10.5232 6.53121 10.4342 5.6H12.4236C12.5391 6.048 12.6 6.517 12.6 7C12.6 7.483 12.5384 7.952 12.4229 8.4ZM9.0272 8.4H4.9728C4.92382 7.93494 4.89952 7.46762 4.9 7C4.9 6.5149 4.9259 6.0466 4.9728 5.6H9.0272C9.0741 6.0466 9.1 6.5149 9.1 7C9.1 7.4851 9.0741 7.9534 9.0272 8.4ZM10.2242 4.2H11.851C11.2979 3.24474 10.4761 2.47329 9.4878 1.9817C9.5333 2.0727 9.5774 2.1658 9.6194 2.261C9.8714 2.828 10.0758 3.4839 10.2242 4.2ZM5.6602 2.8294C5.4838 3.2256 5.3312 3.6876 5.2094 4.2H8.7906C8.68282 3.73032 8.53216 3.27153 8.3405 2.8294C8.1109 2.3128 7.8554 1.9383 7.6076 1.7024C7.3626 1.4693 7.1582 1.4 7 1.4C6.8411 1.4 6.6374 1.47 6.3924 1.7024C6.1446 1.9383 5.8898 2.3128 5.6602 2.8294Z" fill="#949494"/>
</g>
</g>
</g>
<defs>
<clipPath id="clip0_175_683">
<rect width="14" height="14" fill="white"/>
</clipPath>
</defs>
</svg>
