<svg width="139" height="16" viewBox="0 0 139 16" fill="none" xmlns="http://www.w3.org/2000/svg">
<g clip-path="url(#clip0_175_673)">
<path d="M1.5 4.25H0C0 7.14922 2.35078 9.5 5.25 9.5V12.875C5.25 13.0813 5.41875 13.25 5.625 13.25H6.375C6.58125 13.25 6.75 13.0813 6.75 12.875V9.5C6.75 6.60078 4.39922 4.25 1.5 4.25ZM10.5 2.75C8.52656 2.75 6.81094 3.83984 5.91328 5.45C6.5625 6.15781 7.04297 7.01797 7.29609 7.97188C9.9375 7.69766 12 5.46641 12 2.75H10.5Z" fill="#89FF6B"/>
</g>
<path d="M21.1494 13H15.3654V11.716L18.1014 9.328C18.5334 8.944 18.8654 8.58 19.0974 8.236C19.3374 7.892 19.4574 7.528 19.4574 7.144V7.012C19.4574 6.572 19.3374 6.236 19.0974 6.004C18.8574 5.764 18.5094 5.644 18.0534 5.644C17.5894 5.644 17.2294 5.768 16.9734 6.016C16.7254 6.264 16.5454 6.58 16.4334 6.964L15.2574 6.52C15.3374 6.256 15.4534 6.004 15.6054 5.764C15.7574 5.516 15.9494 5.296 16.1814 5.104C16.4214 4.912 16.7014 4.76 17.0214 4.648C17.3494 4.536 17.7254 4.48 18.1494 4.48C18.5814 4.48 18.9654 4.544 19.3014 4.672C19.6454 4.792 19.9334 4.96 20.1654 5.176C20.3974 5.392 20.5734 5.652 20.6934 5.956C20.8134 6.252 20.8734 6.58 20.8734 6.94C20.8734 7.276 20.8214 7.588 20.7174 7.876C20.6214 8.156 20.4814 8.428 20.2974 8.692C20.1214 8.948 19.9094 9.196 19.6614 9.436C19.4134 9.676 19.1414 9.916 18.8454 10.156L16.8174 11.86H21.1494V13ZM26.7487 11.944H26.6767C26.4927 12.32 26.2487 12.616 25.9447 12.832C25.6407 13.04 25.2607 13.144 24.8047 13.144C24.0767 13.144 23.4967 12.872 23.0647 12.328C22.6327 11.784 22.4167 10.976 22.4167 9.904C22.4167 8.832 22.6327 8.024 23.0647 7.48C23.4967 6.936 24.0767 6.664 24.8047 6.664C25.2607 6.664 25.6407 6.772 25.9447 6.988C26.2487 7.196 26.4927 7.488 26.6767 7.864H26.7487V4.12H28.0567V13H26.7487V11.944ZM25.3447 12.076C25.5367 12.076 25.7167 12.052 25.8847 12.004C26.0527 11.956 26.2007 11.884 26.3287 11.788C26.4567 11.692 26.5567 11.576 26.6287 11.44C26.7087 11.296 26.7487 11.128 26.7487 10.936V8.872C26.7487 8.68 26.7087 8.516 26.6287 8.38C26.5567 8.236 26.4567 8.116 26.3287 8.02C26.2007 7.924 26.0527 7.852 25.8847 7.804C25.7167 7.756 25.5367 7.732 25.3447 7.732C24.8487 7.732 24.4647 7.884 24.1927 8.188C23.9287 8.492 23.7967 8.896 23.7967 9.4V10.408C23.7967 10.912 23.9287 11.316 24.1927 11.62C24.4647 11.924 24.8487 12.076 25.3447 12.076Z" fill="#89FF6B"/>
<g clip-path="url(#clip1_175_673)">
<path d="M44.5351 2.66574C45.9076 1.29322 48.1329 1.29322 49.5055 2.66574C50.8779 4.03826 50.8779 6.26354 49.5055 7.63605L47.0202 10.1212L42.0499 5.15089L44.5351 2.66574Z" fill="#949494"/>
<path d="M43.8074 13.3375C42.4349 14.7101 40.2096 14.7101 38.8371 13.3375C37.4646 11.9651 37.4646 9.73978 38.8371 8.36727L41.3223 5.88214L46.2926 10.8524L43.8074 13.3375Z" fill="#949494"/>
</g>
<path d="M69.8291 2.16663H71.8241L67.4642 7.14829L72.5906 13.9255H68.5784L65.4342 9.81413L61.8351 13.9266H59.8412L64.5021 8.59846L59.5834 2.16663H63.6994L66.5414 5.92329L69.8291 2.16663ZM69.1291 12.732H70.2339L63.0986 3.29829H61.9132L69.1291 12.732Z" fill="#949494"/>
<g clip-path="url(#clip2_175_673)">
<mask id="mask0_175_673" style="mask-type:luminance" maskUnits="userSpaceOnUse" x="81" y="1" width="14" height="14">
<path d="M95 1H81V15H95V1Z" fill="white"/>
</mask>
<g mask="url(#mask0_175_673)">
<mask id="mask1_175_673" style="mask-type:luminance" maskUnits="userSpaceOnUse" x="81" y="1" width="14" height="14">
<path d="M95 1H81V15H95V1Z" fill="white"/>
</mask>
<g mask="url(#mask1_175_673)">
<path fill-rule="evenodd" clip-rule="evenodd" d="M88 1C84.1339 1 81 4.1339 81 8C81 11.8661 84.1339 15 88 15C91.8661 15 95 11.8661 95 8C95 4.1339 91.8661 1 88 1ZM85.5122 2.9817C84.5239 3.47329 83.7021 4.24474 83.149 5.2H84.7751C84.9235 4.4839 85.1286 3.828 85.3806 3.261C85.4226 3.1658 85.4667 3.0727 85.5122 2.9817ZM82.4 8C82.4 7.517 82.4616 7.048 82.5764 6.6H84.5658C84.4767 7.53121 84.4767 8.46879 84.5658 9.4H82.5764C82.4589 8.94262 82.3996 8.47223 82.4 8ZM83.149 10.8C83.7021 11.7553 84.5239 12.5267 85.5122 13.0183C85.4663 12.9262 85.4224 12.833 85.3806 12.739C85.1286 12.172 84.9235 11.5161 84.7751 10.8H83.149ZM86.2094 10.8C86.3305 11.3124 86.4838 11.7744 86.6595 12.1706C86.8891 12.6872 87.1446 13.0617 87.3924 13.2976C87.6374 13.5307 87.8411 13.6 88 13.6C88.1589 13.6 88.3626 13.53 88.6069 13.2976C88.8554 13.0617 89.1109 12.6872 89.3405 12.1706C89.5162 11.7744 89.6695 11.3124 89.7906 10.8H86.2094ZM91.2249 10.8C91.0922 11.4659 90.8892 12.1159 90.6194 12.739C90.5774 12.8342 90.5333 12.9273 90.4878 13.0183C91.4761 12.5267 92.2979 11.7553 92.851 10.8H91.2249ZM93.4229 9.4H91.4342C91.5232 8.46879 91.5232 7.53121 91.4342 6.6H93.4236C93.5391 7.048 93.6 7.517 93.6 8C93.6 8.483 93.5384 8.952 93.4229 9.4ZM90.0272 9.4H85.9728C85.9238 8.93494 85.8995 8.46762 85.9 8C85.9 7.5149 85.9259 7.0466 85.9728 6.6H90.0272C90.0741 7.0466 90.1 7.5149 90.1 8C90.1 8.4851 90.0741 8.9534 90.0272 9.4ZM91.2242 5.2H92.851C92.2979 4.24474 91.4761 3.47329 90.4878 2.9817C90.5333 3.0727 90.5774 3.1658 90.6194 3.261C90.8714 3.828 91.0758 4.4839 91.2242 5.2ZM86.6602 3.8294C86.4838 4.2256 86.3312 4.6876 86.2094 5.2H89.7906C89.6828 4.73032 89.5322 4.27153 89.3405 3.8294C89.1109 3.3128 88.8554 2.9383 88.6076 2.7024C88.3626 2.4693 88.1582 2.4 88 2.4C87.8411 2.4 87.6374 2.47 87.3924 2.7024C87.1446 2.9383 86.8898 3.3128 86.6602 3.8294Z" fill="#949494"/>
</g>
</g>
</g>
<g clip-path="url(#clip3_175_673)">
<mask id="mask2_175_673" style="mask-type:luminance" maskUnits="userSpaceOnUse" x="103" y="1" width="14" height="14">
<path d="M117 1H103V15H117V1Z" fill="white"/>
</mask>
<g mask="url(#mask2_175_673)">
<mask id="mask3_175_673" style="mask-type:luminance" maskUnits="userSpaceOnUse" x="103" y="1" width="14" height="14">
<path d="M117 1H103V15H117V1Z" fill="white"/>
</mask>
<g mask="url(#mask3_175_673)">
<path d="M116.876 3.2282L114.776 13.1297C114.62 13.8297 114.205 14 113.619 13.6722L110.42 11.3155L108.878 12.8007C108.706 12.9722 108.563 13.1157 108.235 13.1157L108.463 9.8572L114.391 4.49987C114.648 4.2712 114.333 4.1417 113.99 4.37154L106.661 8.98453L103.502 7.99987C102.816 7.78637 102.802 7.31387 103.644 6.98603L115.99 2.22837C116.561 2.01487 117.061 2.3567 116.876 3.2282Z" fill="#949494"/>
</g>
</g>
</g>
<path fill-rule="evenodd" clip-rule="evenodd" d="M133.205 5.98708C133.633 5.77353 134.178 5.45919 134.724 5.0285C134.839 5.26739 134.851 5.47585 134.792 5.64417C134.75 5.7628 134.671 5.86598 134.567 5.94807C134.454 6.03678 134.313 6.10137 134.158 6.13627C133.863 6.20277 133.518 6.16395 133.205 5.98708ZM133.279 8.17509L133.846 8.50255C132.689 9.15131 132.374 10.356 132 11.5293C131.626 10.356 131.312 9.15131 130.154 8.50255L130.721 8.17509C130.776 8.15437 130.823 8.11682 130.855 8.06782C130.887 8.01882 130.903 7.96089 130.9 7.90233C130.848 6.80347 131.145 6.31753 131.545 6.01242C131.689 5.90313 131.845 5.84825 132 5.84825C132.155 5.84825 132.311 5.90313 132.455 6.01242C132.855 6.31753 133.152 6.80347 133.1 7.90233C133.097 7.96089 133.113 8.01882 133.145 8.06782C133.177 8.11682 133.224 8.15437 133.279 8.17509ZM132 1C132.655 1.01759 133.312 1.14481 133.882 1.39228C134.277 1.56387 134.646 1.79053 134.979 2.06157C135.13 2.18393 135.254 2.30214 135.39 2.43822C135.759 2.45096 136.298 2.04155 136.548 1.65847C136.117 3.0692 134.154 4.73515 132.794 5.37262C132.794 5.37239 132.793 5.37206 132.793 5.37178C132.549 5.18549 132.274 5.09234 132 5.09234C131.726 5.09234 131.451 5.18549 131.207 5.37178C131.207 5.37201 131.206 5.37243 131.206 5.37262C129.846 4.73515 127.883 3.0692 127.453 1.65847C127.703 2.04155 128.241 2.45096 128.61 2.43822C128.746 2.30219 128.87 2.18393 129.021 2.06157C129.355 1.79053 129.723 1.56387 130.118 1.39228C130.688 1.14481 131.345 1.01759 132 1ZM130.795 5.98708C130.367 5.77353 129.822 5.45919 129.276 5.0285C129.161 5.26739 129.149 5.47585 129.208 5.64417C129.25 5.7628 129.329 5.86598 129.433 5.94807C129.546 6.03678 129.687 6.10137 129.842 6.13627C130.138 6.20277 130.482 6.16395 130.795 5.98708Z" fill="#949494"/>
<path fill-rule="evenodd" clip-rule="evenodd" d="M135.321 4.5007C135.622 4.1976 135.886 3.86211 136.099 3.56274L136.207 3.76616C136.555 4.46229 136.736 5.15562 136.736 5.93588L136.735 7.17404L136.742 7.8159C136.767 9.39164 137.108 10.9859 137.88 12.4449L136.264 11.1419L135.121 12.9973L133.92 11.8665L132 14.9815L130.081 11.8666L128.879 12.9973L127.736 11.1419L126.12 12.445C126.892 10.986 127.233 9.39169 127.259 7.81594L127.265 7.17409L127.264 5.93593C127.264 5.15562 127.445 4.46229 127.793 3.76621L127.901 3.56279C128.114 3.86216 128.379 4.1976 128.679 4.50074L128.585 4.69558C128.403 5.074 128.343 5.49712 128.485 5.89953C128.576 6.15872 128.743 6.38099 128.958 6.55067C129.167 6.71545 129.415 6.82652 129.674 6.88485C129.843 6.92284 130.015 6.93847 130.185 6.93315C130.146 7.15906 130.128 7.39338 130.127 7.63212L128.603 8.51254L129.779 9.17189C129.873 9.2246 129.963 9.28499 130.047 9.35244C131.016 10.2232 131.599 12.799 132 14.0572C132.401 12.799 132.984 10.2232 133.954 9.35244C134.038 9.28498 134.127 9.22459 134.221 9.17189L135.398 8.51254L133.873 7.63212C133.872 7.39338 133.855 7.15906 133.815 6.93315C133.986 6.93847 134.158 6.92284 134.326 6.88485C134.585 6.82652 134.833 6.71545 135.042 6.55067C135.257 6.38099 135.424 6.15872 135.516 5.89953C135.658 5.49712 135.597 5.07404 135.415 4.69558L135.321 4.50074L135.321 4.5007Z" fill="#949494"/>
<defs>
<clipPath id="clip0_175_673">
<rect width="12" height="12" fill="white" transform="translate(0 2)"/>
</clipPath>
<clipPath id="clip1_175_673">
<rect width="14" height="14" fill="white" transform="translate(37 1)"/>
</clipPath>
<clipPath id="clip2_175_673">
<rect width="14" height="14" fill="white" transform="translate(81 1)"/>
</clipPath>
<clipPath id="clip3_175_673">
<rect width="14" height="14" fill="white" transform="translate(103 1)"/>
</clipPath>
</defs>
</svg>
